<svg width="25" height="47" viewBox="0 0 25 47" fill="none" xmlns="http://www.w3.org/2000/svg">
<path d="M24.1659 4.44938C24.3727 4.23059 24.5343 3.97322 24.6416 3.69197C24.7489 3.41071 24.7997 3.11108 24.7912 2.81018C24.7827 2.50928 24.715 2.21301 24.592 1.93827C24.469 1.66353 24.2931 1.41571 24.0743 1.20896C23.8555 1.00221 23.5981 0.840578 23.3169 0.733292C23.0356 0.626007 22.736 0.575168 22.4351 0.58368C22.1342 0.592192 21.8379 0.659888 21.5632 0.782902C21.2884 0.905915 21.0406 1.08184 20.8339 1.30063L1.35468 21.9256C0.952411 22.3511 0.728271 22.9145 0.728271 23.5C0.728271 24.0856 0.952411 24.6489 1.35468 25.0744L20.8339 45.7017C21.0392 45.9253 21.287 46.1058 21.5627 46.2328C21.8385 46.3598 22.1367 46.4308 22.4401 46.4416C22.7435 46.4523 23.0461 46.4027 23.3301 46.2956C23.6142 46.1885 23.8742 46.026 24.0949 45.8175C24.3156 45.6091 24.4927 45.3589 24.616 45.0814C24.7392 44.8039 24.806 44.5048 24.8126 44.2012C24.8192 43.8977 24.7655 43.5959 24.6545 43.3133C24.5434 43.0308 24.3774 42.7731 24.1659 42.5552L6.17177 23.5L24.1659 4.44938Z" fill="#888888"/>
</svg>
