<svg width="24" height="45" viewBox="0 0 24 45" fill="none" xmlns="http://www.w3.org/2000/svg">
<path d="M0.894595 40.8579C0.695364 41.0687 0.53961 41.3167 0.436226 41.5877C0.332842 41.8588 0.28385 42.1475 0.292053 42.4375C0.300255 42.7274 0.36549 43.0129 0.48403 43.2777C0.602572 43.5424 0.772097 43.7812 0.982927 43.9805C1.19376 44.1797 1.44177 44.3354 1.7128 44.4388C1.98382 44.5422 2.27256 44.5912 2.56252 44.583C2.85247 44.5748 3.13798 44.5096 3.40273 44.391C3.66747 44.2725 3.90628 44.1029 4.10551 43.8921L22.8764 24.0171C23.264 23.6071 23.48 23.0642 23.48 22.5C23.48 21.9357 23.264 21.3929 22.8764 20.9829L4.10552 1.10565C3.9076 0.890204 3.66885 0.716227 3.40312 0.593828C3.1374 0.471434 2.85001 0.403059 2.55764 0.392672C2.26527 0.382284 1.97375 0.430094 1.70001 0.533323C1.42627 0.636553 1.17577 0.793142 0.963064 0.994001C0.750355 1.19486 0.579678 1.43598 0.460943 1.70336C0.342211 1.97074 0.277788 2.25904 0.271417 2.55153C0.265047 2.84401 0.316856 3.13485 0.423837 3.40714C0.530819 3.67944 0.690836 3.92776 0.894598 4.13769L18.2344 22.5L0.894595 40.8579Z" fill="#888888"/>
</svg>
