<svg width="35" height="35" viewBox="0 0 35 35" fill="none" xmlns="http://www.w3.org/2000/svg">
<path d="M24.1201 29.6706C24.2446 29.8024 24.342 29.9574 24.4066 30.1269C24.4713 30.2963 24.5019 30.4768 24.4968 30.6581C24.4916 30.8394 24.4509 31.0179 24.3767 31.1834C24.3026 31.3489 24.1967 31.4982 24.0648 31.6227C23.933 31.7473 23.778 31.8447 23.6085 31.9093C23.4391 31.9739 23.2586 32.0046 23.0773 31.9994C22.896 31.9943 22.7175 31.9535 22.552 31.8794C22.3865 31.8053 22.2372 31.6993 22.1126 31.5675L10.3774 19.1419C10.135 18.8856 10 18.5462 10 18.1935C10 17.8407 10.135 17.5013 10.3774 17.245L22.1126 4.81802C22.2364 4.68332 22.3856 4.57456 22.5518 4.49804C22.7179 4.42151 22.8976 4.37877 23.0804 4.37227C23.2631 4.36578 23.4454 4.39567 23.6165 4.46021C23.7877 4.52474 23.9443 4.62264 24.0773 4.74822C24.2102 4.87379 24.317 5.02453 24.3912 5.1917C24.4654 5.35886 24.5057 5.5391 24.5097 5.72196C24.5137 5.90482 24.4813 6.08665 24.4144 6.25688C24.3475 6.42712 24.2475 6.58236 24.1201 6.71361L13.2794 18.1935L24.1201 29.6706Z" fill="#666666"/>
</svg>
