<svg width="18" height="18" viewBox="0 0 18 18" fill="none" xmlns="http://www.w3.org/2000/svg">
<path d="M11.8119 14.8196C11.872 14.8864 11.919 14.965 11.9501 15.0508C11.9813 15.1367 11.9961 15.2282 11.9936 15.32C11.9911 15.4119 11.9715 15.5023 11.9357 15.5862C11.9 15.6701 11.8488 15.7457 11.7852 15.8088C11.7217 15.872 11.6469 15.9213 11.5651 15.954C11.4834 15.9868 11.3963 16.0023 11.3088 15.9997C11.2214 15.9971 11.1353 15.9765 11.0554 15.9389C10.9756 15.9013 10.9035 15.8476 10.8435 15.7809L5.18206 9.48455C5.06514 9.35466 5 9.18268 5 9.00393C5 8.82518 5.06514 8.65321 5.18206 8.52331L10.8435 2.22631C10.9031 2.15806 10.9752 2.10294 11.0553 2.06417C11.1354 2.02539 11.2221 2.00373 11.3103 2.00044C11.3985 1.99715 11.4864 2.0123 11.569 2.045C11.6515 2.0777 11.7271 2.12731 11.7912 2.19094C11.8554 2.25457 11.9069 2.33096 11.9427 2.41566C11.9785 2.50036 11.9979 2.5917 11.9998 2.68436C12.0018 2.77702 11.9861 2.86915 11.9539 2.95541C11.9216 3.04167 11.8733 3.12034 11.8119 3.18685L6.58209 9.00393L11.8119 14.8196Z" fill="#333333"/>
</svg>
