<svg width="18" height="19" viewBox="0 0 18 19" fill="none" xmlns="http://www.w3.org/2000/svg">
<path d="M12.7581 16.9824C12.8354 17.0682 12.8958 17.1693 12.9359 17.2796C12.976 17.39 12.995 17.5076 12.9918 17.6257C12.9886 17.7438 12.9633 17.8601 12.9173 17.968C12.8714 18.0758 12.8056 18.1731 12.7239 18.2542C12.6421 18.3354 12.546 18.3988 12.4409 18.4409C12.3358 18.483 12.2238 18.503 12.1114 18.4996C11.9989 18.4963 11.8882 18.4697 11.7855 18.4214C11.6829 18.3732 11.5903 18.3041 11.513 18.2182L4.23408 10.123C4.08376 9.95599 4 9.73488 4 9.50505C4 9.27523 4.08376 9.05412 4.23408 8.88712L11.513 0.790969C11.5898 0.703215 11.6823 0.632353 11.7854 0.5825C11.8884 0.532648 11.9999 0.504797 12.1132 0.500566C12.2266 0.496335 12.3397 0.515809 12.4458 0.557855C12.552 0.599901 12.6491 0.663682 12.7316 0.745493C12.8141 0.827304 12.8803 0.925514 12.9263 1.03442C12.9723 1.14332 12.9973 1.26076 12.9998 1.37989C13.0023 1.49902 12.9822 1.61748 12.9407 1.72839C12.8992 1.83929 12.8372 1.94044 12.7581 2.02594L6.03411 9.50505L12.7581 16.9824Z" fill="#333333"/>
</svg>
