<svg width="15" height="15" viewBox="0 0 15 15" fill="none" xmlns="http://www.w3.org/2000/svg">
<path d="M10.8119 12.9039C10.872 12.966 10.919 13.0389 10.9501 13.1186C10.9813 13.1984 10.9961 13.2833 10.9936 13.3686C10.9911 13.4539 10.9715 13.5379 10.9357 13.6158C10.9 13.6936 10.8488 13.7639 10.7852 13.8225C10.7217 13.8811 10.6469 13.9269 10.5651 13.9573C10.4834 13.9877 10.3963 14.0022 10.3088 13.9997C10.2214 13.9973 10.1353 13.9781 10.0554 13.9433C9.97557 13.9084 9.90354 13.8585 9.84345 13.7965L4.18206 7.94994C4.06514 7.82933 4 7.66964 4 7.50365C4 7.33767 4.06514 7.17798 4.18206 7.05736L9.84345 1.21014C9.90315 1.14677 9.97516 1.09559 10.0553 1.05958C10.1354 1.02358 10.2221 1.00346 10.3103 1.00041C10.3985 0.997354 10.4864 1.01142 10.569 1.04178C10.6515 1.07215 10.7271 1.11822 10.7912 1.1773C10.8554 1.23639 10.9069 1.30732 10.9427 1.38597C10.9785 1.46462 10.9979 1.54943 10.9998 1.63547C11.0018 1.72151 10.9861 1.80707 10.9539 1.88717C10.9216 1.96727 10.8733 2.04032 10.8119 2.10207L5.58209 7.50365L10.8119 12.9039Z" fill="#333333"/>
</svg>
