<svg width="15" height="15" viewBox="0 0 15 15" fill="none" xmlns="http://www.w3.org/2000/svg">
<path d="M9.86563 11.1569C9.90855 11.2046 9.94211 11.2607 9.96438 11.322C9.98665 11.3834 9.99721 11.4487 9.99544 11.5143C9.99367 11.5799 9.97962 11.6445 9.95408 11.7044C9.92854 11.7643 9.89202 11.8184 9.8466 11.8635C9.80118 11.9085 9.74775 11.9438 9.68937 11.9672C9.63098 11.9906 9.56878 12.0017 9.50631 11.9998C9.44384 11.9979 9.38233 11.9832 9.3253 11.9564C9.26826 11.9295 9.21682 11.8912 9.1739 11.8435L5.13004 7.34611C5.04653 7.25333 5 7.13049 5 7.00281C5 6.87513 5.04653 6.75229 5.13004 6.65951L9.1739 2.16165C9.21653 2.1129 9.26797 2.07353 9.32521 2.04583C9.38246 2.01814 9.44437 2.00267 9.50736 2.00032C9.57035 1.99796 9.63315 2.00878 9.69212 2.03214C9.75109 2.0555 9.80506 2.09094 9.85088 2.13639C9.89671 2.18184 9.93348 2.2364 9.95906 2.2969C9.98464 2.3574 9.99851 2.42264 9.99989 2.48883C10.0013 2.55501 9.9901 2.62082 9.96705 2.68244C9.944 2.74405 9.90953 2.80024 9.86563 2.84775L6.13006 7.00281L9.86563 11.1569Z" fill="#333333"/>
</svg>
