<svg width="18" height="18" viewBox="0 0 18 18" fill="none" xmlns="http://www.w3.org/2000/svg">
<path d="M15.3755 11.2772H6.85975M3.8539 11.2772H2.62427M3.8539 11.2772C3.8539 10.8787 4.01221 10.4965 4.294 10.2147C4.57578 9.93293 4.95797 9.77462 5.35648 9.77462C5.75499 9.77462 6.13718 9.93293 6.41896 10.2147C6.70075 10.4965 6.85906 10.8787 6.85906 11.2772C6.85906 11.6757 6.70075 12.0579 6.41896 12.3397C6.13718 12.6215 5.75499 12.7798 5.35648 12.7798C4.95797 12.7798 4.57578 12.6215 4.294 12.3397C4.01221 12.0579 3.8539 11.6757 3.8539 11.2772ZM15.3755 6.72328H13.2354M10.2295 6.72328H2.62427M10.2295 6.72328C10.2295 6.32477 10.3878 5.94259 10.6696 5.6608C10.9514 5.37901 11.3336 5.2207 11.7321 5.2207C11.9294 5.2207 12.1248 5.25957 12.3071 5.33508C12.4894 5.41059 12.6551 5.52127 12.7946 5.6608C12.9341 5.80033 13.0448 5.96597 13.1203 6.14827C13.1958 6.33057 13.2347 6.52596 13.2347 6.72328C13.2347 6.9206 13.1958 7.11599 13.1203 7.29829C13.0448 7.4806 12.9341 7.64624 12.7946 7.78577C12.6551 7.92529 12.4894 8.03597 12.3071 8.11148C12.1248 8.187 11.9294 8.22586 11.7321 8.22586C11.3336 8.22586 10.9514 8.06755 10.6696 7.78577C10.3878 7.50398 10.2295 7.12179 10.2295 6.72328Z" stroke="black" stroke-width="1.2" stroke-miterlimit="10" stroke-linecap="round"/>
</svg>
