<svg width="30" height="30" viewBox="0 0 30 30" fill="none" xmlns="http://www.w3.org/2000/svg">
<path d="M26.125 18.9837H10.6813M5.23 18.9837H3M5.23 18.9837C5.23 18.261 5.5171 17.5679 6.02813 17.0569C6.53917 16.5458 7.23229 16.2587 7.955 16.2587C8.67772 16.2587 9.37083 16.5458 9.88187 17.0569C10.3929 17.5679 10.68 18.261 10.68 18.9837C10.68 19.7065 10.3929 20.3996 9.88187 20.9106C9.37083 21.4217 8.67772 21.7087 7.955 21.7087C7.23229 21.7087 6.53917 21.4217 6.02813 20.9106C5.5171 20.3996 5.23 19.7065 5.23 18.9837ZM26.125 10.725H22.2438M16.7925 10.725H3M16.7925 10.725C16.7925 10.0023 17.0796 9.30917 17.5906 8.79813C18.1017 8.2871 18.7948 8 19.5175 8C19.8754 8 20.2297 8.07048 20.5603 8.20743C20.8909 8.34437 21.1913 8.54509 21.4444 8.79813C21.6974 9.05117 21.8981 9.35158 22.0351 9.68219C22.172 10.0128 22.2425 10.3671 22.2425 10.725C22.2425 11.0829 22.172 11.4372 22.0351 11.7678C21.8981 12.0984 21.6974 12.3988 21.4444 12.6519C21.1913 12.9049 20.8909 13.1056 20.5603 13.2426C20.2297 13.3795 19.8754 13.45 19.5175 13.45C18.7948 13.45 18.1017 13.1629 17.5906 12.6519C17.0796 12.1408 16.7925 11.4477 16.7925 10.725Z" stroke="white" stroke-width="1.7" stroke-miterlimit="10" stroke-linecap="round"/>
</svg>
