<svg width="20" height="20" viewBox="0 0 20 20" fill="none" xmlns="http://www.w3.org/2000/svg">
<path d="M10 5.42861C9.4606 5.42861 8.93331 5.59618 8.48481 5.91013C8.03631 6.22408 7.68675 6.67031 7.48033 7.19239C7.27391 7.71447 7.2199 8.28895 7.32513 8.84318C7.43036 9.39742 7.69011 9.90652 8.07153 10.3061C8.45294 10.7057 8.9389 10.9778 9.46794 11.088C9.99697 11.1983 10.5453 11.1417 11.0437 10.9255C11.542 10.7092 11.968 10.343 12.2676 9.87314C12.5673 9.40328 12.7273 8.85087 12.7273 8.28578C12.7273 7.52801 12.4399 6.80128 11.9285 6.26545C11.417 5.72963 10.7233 5.42861 10 5.42861ZM10 10.0001C9.67636 10.0001 9.35998 9.89954 9.09089 9.71117C8.82179 9.5228 8.61205 9.25506 8.4882 8.94181C8.36434 8.62856 8.33194 8.28388 8.39508 7.95133C8.45822 7.61879 8.61407 7.31333 8.84292 7.07358C9.07177 6.83383 9.36334 6.67056 9.68076 6.60441C9.99818 6.53827 10.3272 6.57222 10.6262 6.70197C10.9252 6.83172 11.1808 7.05145 11.3606 7.33336C11.5404 7.61528 11.6364 7.94672 11.6364 8.28578C11.6364 8.74044 11.464 9.17648 11.1571 9.49797C10.8502 9.81947 10.434 10.0001 10 10.0001ZM10 2C8.40926 2.00189 6.88418 2.66475 5.75935 3.84315C4.63452 5.02155 4.0018 6.61927 4 8.28578C4 10.5287 4.98932 12.9058 6.86364 15.1608C7.70584 16.1798 8.65372 17.0974 9.68977 17.8966C9.78149 17.9639 9.89075 18 10.0027 18C10.1147 18 10.224 17.9639 10.3157 17.8966C11.3498 17.0971 12.2959 16.1795 13.1364 15.1608C15.008 12.9058 16 10.5287 16 8.28578C15.9982 6.61927 15.3655 5.02155 14.2406 3.84315C13.1158 2.66475 11.5907 2.00189 10 2ZM10 16.7144C8.87295 15.7859 5.09091 12.3751 5.09091 8.28578C5.09091 6.92179 5.60812 5.61367 6.52875 4.64919C7.44938 3.68471 8.69803 3.14287 10 3.14287C11.302 3.14287 12.5506 3.68471 13.4713 4.64919C14.3919 5.61367 14.9091 6.92179 14.9091 8.28578C14.9091 12.3737 11.127 15.7859 10 16.7144Z" fill="#555555"/>
</svg>
