<svg width="23" height="22" viewBox="0 0 23 22" fill="none" xmlns="http://www.w3.org/2000/svg">
<path d="M19.0625 13.7008H8.96145M5.39604 13.7008H3.9375M5.39604 13.7008C5.39604 13.2281 5.58382 12.7748 5.91806 12.4405C6.25231 12.1063 6.70564 11.9185 7.17834 11.9185C7.65103 11.9185 8.10437 12.1063 8.43861 12.4405C8.77286 12.7748 8.96064 13.2281 8.96064 13.7008C8.96064 14.1735 8.77286 14.6268 8.43861 14.9611C8.10437 15.2953 7.65103 15.4831 7.17834 15.4831C6.70564 15.4831 6.25231 15.2953 5.91806 14.9611C5.58382 14.6268 5.39604 14.1735 5.39604 13.7008ZM19.0625 8.29914H16.524M12.9585 8.29914H3.9375M12.9585 8.29914C12.9585 7.82645 13.1463 7.37311 13.4806 7.03887C13.8148 6.70462 14.2681 6.51685 14.7408 6.51685C14.9749 6.51685 15.2067 6.56295 15.4229 6.65252C15.6391 6.74208 15.8356 6.87337 16.0011 7.03887C16.1666 7.20437 16.2979 7.40085 16.3875 7.61709C16.477 7.83333 16.5231 8.06509 16.5231 8.29914C16.5231 8.5332 16.477 8.76496 16.3875 8.9812C16.2979 9.19744 16.1666 9.39392 16.0011 9.55942C15.8356 9.72492 15.6391 9.8562 15.4229 9.94577C15.2067 10.0353 14.9749 10.0814 14.7408 10.0814C14.2681 10.0814 13.8148 9.89366 13.4806 9.55942C13.1463 9.22517 12.9585 8.77184 12.9585 8.29914Z" stroke="white" stroke-width="1.3" stroke-miterlimit="10" stroke-linecap="round"/>
</svg>
