<svg width="30" height="30" viewBox="0 0 30 30" fill="none" xmlns="http://www.w3.org/2000/svg">
<path d="M26.5 15H24.2362M24.2362 15C24.2362 17.4498 23.2637 19.7986 21.5315 21.5308C19.7992 23.2631 17.4498 24.2362 15 24.2362M24.2362 15C24.2362 12.5502 23.2637 10.2002 21.5315 8.46792C19.7992 6.73567 17.4498 5.76375 15 5.76375M15 3.5V5.76375M15 5.76375C12.5504 5.76375 10.2011 6.7356 8.46899 8.46774C6.73685 10.1999 5.76375 12.5491 5.76375 14.9987C5.76375 17.4484 6.73685 19.7976 8.46899 21.5298C10.2011 23.2619 12.5504 24.2362 15 24.2362M3.5 15H5.76375M15 26.5V24.2362" stroke="#555555" stroke-width="1.6" stroke-miterlimit="10" stroke-linecap="round"/>
<path d="M15 18C15.7956 18 16.5587 17.6839 17.1213 17.1213C17.6839 16.5587 18 15.7956 18 15C18 14.2044 17.6839 13.4413 17.1213 12.8787C16.5587 12.3161 15.7956 12 15 12C14.2044 12 13.4413 12.3161 12.8787 12.8787C12.3161 13.4413 12 14.2044 12 15C12 15.7956 12.3161 16.5587 12.8787 17.1213C13.4413 17.6839 14.2044 18 15 18Z" stroke="#555555" stroke-width="1.6" stroke-miterlimit="10" stroke-linecap="round"/>
</svg>
