<svg width="21" height="21" viewBox="0 0 21 21" fill="none" xmlns="http://www.w3.org/2000/svg">
<path d="M19 10H17.4252M17.4252 10C17.4252 11.7042 16.7487 13.3381 15.5436 14.5432C14.3386 15.7482 12.7042 16.4252 11 16.4252M17.4252 10C17.4252 8.29581 16.7487 6.66099 15.5436 5.45594C14.3386 4.2509 12.7042 3.57478 11 3.57478M11 2V3.57478M11 3.57478C9.29593 3.57478 7.66165 4.25085 6.45669 5.45582C5.25172 6.66078 4.57478 8.29506 4.57478 9.99913C4.57478 11.7032 5.25172 13.3375 6.45669 14.5424C7.66165 15.7474 9.29593 16.4252 11 16.4252M3 10H4.57478M11 18V16.4252" stroke="#555555" stroke-width="1.3" stroke-miterlimit="10" stroke-linecap="round"/>
<path d="M10.9996 12.087C11.553 12.087 12.0839 11.8671 12.4753 11.4757C12.8666 11.0844 13.0865 10.5535 13.0865 10C13.0865 9.44655 12.8666 8.91572 12.4753 8.52434C12.0839 8.13296 11.553 7.91309 10.9996 7.91309C10.4461 7.91309 9.91523 8.13296 9.52385 8.52434C9.13247 8.91572 8.9126 9.44655 8.9126 10C8.9126 10.5535 9.13247 11.0844 9.52385 11.4757C9.91523 11.8671 10.4461 12.087 10.9996 12.087Z" stroke="#555555" stroke-width="1.3" stroke-miterlimit="10" stroke-linecap="round"/>
</svg>
