<svg width="30" height="30" viewBox="0 0 30 30" fill="none" xmlns="http://www.w3.org/2000/svg">
<path d="M15.5 8.71433C14.7358 8.71433 13.9889 8.94474 13.3535 9.37642C12.7181 9.8081 12.2229 10.4217 11.9305 11.1395C11.638 11.8574 11.5615 12.6473 11.7106 13.4094C11.8597 14.1715 12.2277 14.8715 12.768 15.4209C13.3083 15.9703 13.9968 16.3445 14.7462 16.4961C15.4957 16.6477 16.2726 16.5699 16.9785 16.2725C17.6845 15.9752 18.288 15.4716 18.7125 14.8256C19.137 14.1795 19.3636 13.4199 19.3636 12.6429C19.3636 11.601 18.9566 10.6018 18.232 9.865C17.5074 9.12824 16.5247 8.71433 15.5 8.71433ZM15.5 15.0001C15.0415 15.0001 14.5933 14.8619 14.2121 14.6029C13.8309 14.3438 13.5337 13.9757 13.3583 13.545C13.1828 13.1143 13.1369 12.6403 13.2264 12.1831C13.3158 11.7258 13.5366 11.3058 13.8608 10.9762C14.185 10.6465 14.5981 10.422 15.0477 10.3311C15.4974 10.2401 15.9635 10.2868 16.3871 10.4652C16.8107 10.6436 17.1728 10.9457 17.4275 11.3334C17.6822 11.721 17.8182 12.1767 17.8182 12.6429C17.8182 13.2681 17.5739 13.8677 17.1392 14.3097C16.7045 14.7518 16.1148 15.0001 15.5 15.0001ZM15.5 4C13.2464 4.0026 11.0859 4.91403 9.49242 6.53433C7.89891 8.15463 7.00256 10.3515 7 12.6429C7 15.7269 8.40153 18.9955 11.0568 22.0962C12.2499 23.4973 13.5928 24.7589 15.0605 25.8578C15.1904 25.9504 15.3452 26 15.5039 26C15.6625 26 15.8173 25.9504 15.9472 25.8578C17.4123 24.7585 18.7525 23.4968 19.9432 22.0962C22.5946 18.9955 24 15.7269 24 12.6429C23.9974 10.3515 23.1011 8.15463 21.5076 6.53433C19.9141 4.91403 17.7536 4.0026 15.5 4ZM15.5 24.2323C13.9034 22.9555 8.54545 18.2658 8.54545 12.6429C8.54545 10.7675 9.27816 8.9688 10.5824 7.64264C11.8866 6.31648 13.6555 5.57144 15.5 5.57144C17.3445 5.57144 19.1134 6.31648 20.4176 7.64264C21.7218 8.9688 22.4545 10.7675 22.4545 12.6429C22.4545 18.2638 17.0966 22.9555 15.5 24.2323Z" fill="#555555"/>
</svg>
