<svg width="63" height="17" viewBox="0 0 63 17" fill="none" xmlns="http://www.w3.org/2000/svg">
<path d="M15.9385 8.02246V9.87793H0.500977V8.02246H7.06934V6.5752H2.375V0.786133H14.083V2.62305H4.73145V4.71973H14.1758V6.5752H9.38867V8.02246H15.9385ZM8.18262 10.7314C11.8379 10.7314 14.0459 11.8447 14.0645 13.8486C14.0459 15.8154 11.8379 16.9473 8.18262 16.9473C4.49023 16.9473 2.26367 15.8154 2.26367 13.8486C2.26367 11.8447 4.49023 10.7314 8.18262 10.7314ZM8.18262 12.5312C5.84473 12.5312 4.65723 12.9766 4.67578 13.8486C4.65723 14.7393 5.84473 15.1475 8.18262 15.1475C10.4648 15.1475 11.6709 14.7393 11.6895 13.8486C11.6709 12.9766 10.4648 12.5312 8.18262 12.5312ZM19.5283 1.6582V10.8613C21.0776 10.8335 22.5063 10.7222 24.0927 10.3789L24.4082 12.3643C22.33 12.8096 20.5117 12.8838 18.3408 12.8838H17.1533V1.6582H19.5283ZM31.1435 0.0439453V16.9287H28.917V0.0439453H31.1435ZM27.5254 0.359375V16.1865H25.2802V7.29883H21.9033V5.3877H25.2802V0.359375H27.5254ZM38.8896 3.86621C38.8896 7.03906 40.1699 10.1191 42.9902 11.3438L41.5429 13.2363C39.6689 12.3179 38.4164 10.6387 37.7206 8.56055C36.9785 10.7686 35.6796 12.5776 33.7499 13.5332L32.2656 11.6035C35.1601 10.3047 36.4775 7.03906 36.496 3.86621V1.34277H38.8896V3.86621ZM46.7568 0.0439453V16.9658H44.4189V7.26172H41.0976V5.35059H44.4189V0.0439453H46.7568ZM62.7411 0.0439453V9.80371H60.3847V5.87012H57.7128V3.94043H60.3847V0.0439453H62.7411ZM62.7411 10.5088V16.7432H51.3856V10.5088H62.7411ZM53.7606 12.3643V14.8506H60.4218V12.3643H53.7606ZM58.2509 0.897461V2.80859H54.8925C54.9296 4.729 56.1264 6.7793 58.7704 7.65137L57.6015 9.52539C55.7274 8.90381 54.4379 7.6792 53.705 6.14844C52.9535 7.83691 51.6083 9.18213 49.623 9.82227L48.4169 7.9668C51.1444 7.09473 52.4154 4.94238 52.4804 2.80859H49.0849V0.897461H58.2509Z" fill="#555555"/>
</svg>
