<svg width="96" height="27" viewBox="0 0 96 27" fill="none" xmlns="http://www.w3.org/2000/svg">
<path d="M24.3271 13.0117V15.8438H0.764648V13.0117H10.79V10.8027H3.625V1.9668H21.4951V4.77051H7.22168V7.9707H21.6367V10.8027H14.3301V13.0117H24.3271ZM12.4893 17.1465C18.0684 17.1465 21.4385 18.8457 21.4668 21.9043C21.4385 24.9062 18.0684 26.6338 12.4893 26.6338C6.85352 26.6338 3.45508 24.9062 3.45508 21.9043C3.45508 18.8457 6.85352 17.1465 12.4893 17.1465ZM12.4893 19.8936C8.9209 19.8936 7.1084 20.5732 7.13672 21.9043C7.1084 23.2637 8.9209 23.8867 12.4893 23.8867C15.9727 23.8867 17.8135 23.2637 17.8418 21.9043C17.8135 20.5732 15.9727 19.8936 12.4893 19.8936ZM29.8063 3.29785V17.3447C32.1711 17.3022 34.3517 17.1323 36.7731 16.6084L37.2546 19.6387C34.0827 20.3184 31.3073 20.4316 27.9938 20.4316H26.1813V3.29785H29.8063ZM47.5349 0.833984V26.6055H44.1364V0.833984H47.5349ZM42.0124 1.31543V25.4727H38.5856V11.9072H33.4313V8.99023H38.5856V1.31543H42.0124ZM59.3578 6.66797C59.3578 11.5107 61.3119 16.2119 65.6166 18.0811L63.4076 20.9697C60.5472 19.5679 58.6356 17.0049 57.5736 13.833C56.4408 17.2031 54.4584 19.9644 51.5131 21.4229L49.2474 18.4775C53.6654 16.4951 55.6761 11.5107 55.7045 6.66797V2.81641H59.3578V6.66797ZM71.3656 0.833984V26.6621H67.7972V11.8506H62.7279V8.93359H67.7972V0.833984H71.3656ZM95.7628 0.833984V15.7305H92.1661V9.72656H88.088V6.78125H92.1661V0.833984H95.7628ZM95.7628 16.8066V26.3223H78.4307V16.8066H95.7628ZM82.0557 19.6387V23.4336H92.2227V19.6387H82.0557ZM88.9092 2.13672V5.05371H83.7833C83.8399 7.98486 85.6666 11.1143 89.7022 12.4453L87.918 15.3057C85.0577 14.3569 83.0894 12.4878 81.9708 10.1514C80.8238 12.7285 78.7706 14.7817 75.7403 15.7588L73.8995 12.9268C78.0626 11.5957 80.0025 8.31055 80.1016 5.05371H74.919V2.13672H88.9092Z" fill="#555555"/>
</svg>
