<svg width="33" height="33" viewBox="0 0 33 33" fill="none" xmlns="http://www.w3.org/2000/svg">
<path d="M32.7076 30.7877L22.9911 21.0116C24.8021 18.8426 25.8936 16.0521 25.8936 13.0051C25.8936 6.10163 20.2971 0.505127 13.3936 0.505127C6.49005 0.505127 0.893555 6.10163 0.893555 13.0051C0.893555 19.9086 6.49005 25.5051 13.3936 25.5051C16.5301 25.5051 19.3951 24.3471 21.5901 22.4381L31.2931 32.2021C31.6836 32.5927 32.3171 32.5927 32.7076 32.2021C33.0976 31.8116 33.0976 31.1786 32.7076 30.7877ZM13.3936 23.5216C7.58555 23.5216 2.87705 18.8131 2.87705 13.0051C2.87705 7.19713 7.58555 2.48863 13.3936 2.48863C19.2016 2.48863 23.9101 7.19713 23.9101 13.0051C23.9101 18.8131 19.2016 23.5216 13.3936 23.5216Z" fill="#555555"/>
</svg>
