<svg width="24" height="12" viewBox="0 0 24 12" fill="none" xmlns="http://www.w3.org/2000/svg">
<path d="M21.9765 11.6775C22.091 11.7805 22.2257 11.8611 22.3729 11.9145C22.5201 11.968 22.6769 11.9933 22.8343 11.9891C22.9918 11.9848 23.1468 11.9511 23.2906 11.8898C23.4344 11.8285 23.5641 11.7409 23.6723 11.6318C23.7805 11.5228 23.8651 11.3946 23.9212 11.2545C23.9774 11.1143 24.004 10.9651 23.9995 10.8151C23.9951 10.6652 23.9596 10.5176 23.8953 10.3807C23.8309 10.2438 23.7388 10.1204 23.6243 10.0174L12.8307 0.312101C12.608 0.111674 12.3132 -5.10847e-07 12.0067 -5.24242e-07C11.7003 -5.37637e-07 11.4055 0.111674 11.1828 0.3121L0.387958 10.0174C0.270954 10.1197 0.176471 10.2431 0.11 10.3805C0.0435298 10.5179 0.00639622 10.6665 0.000754931 10.8177C-0.00488636 10.9688 0.021079 11.1196 0.0771406 11.2611C0.133202 11.4026 0.218242 11.5321 0.327324 11.6421C0.436406 11.7521 0.567353 11.8403 0.71256 11.9017C0.857767 11.9631 1.01434 11.9964 1.17318 11.9997C1.33202 12.003 1.48997 11.9762 1.63785 11.9209C1.78573 11.8656 1.92058 11.7829 2.03459 11.6775L12.0067 2.71215L21.9765 11.6775Z" fill="white"/>
</svg>
