<svg width="40" height="30" viewBox="0 0 40 30" fill="none" xmlns="http://www.w3.org/2000/svg">
<path d="M40 9.84887V29.6725L39.6752 30H0.324794L0 29.6725V9.92444L9.84385 0H30.0312C30.406 0.327456 30.8307 0.6801 31.2305 1.05793C34.1287 3.97985 37.0269 6.90176 39.975 9.87406L40 9.84887ZM21.3866 28.2368H38.2261V10.6045C35.3779 7.78337 32.6796 4.86146 29.7064 2.36776C26.9332 5.16373 24.1599 7.9597 21.3616 10.7809V28.262L21.3866 28.2368ZM1.77389 15.7179H19.6127V11.2846H1.77389V15.7179ZM13.1418 17.5567H1.72392C1.72392 19.068 1.69894 20.5542 1.74891 21.9899H13.1418V17.5567ZM13.1418 23.8035H1.72392C1.74891 25.3149 1.67395 26.801 1.77389 28.2368H13.1418V23.8035ZM14.9407 17.5315V28.2872H19.4378C19.4628 28.2872 19.5128 28.2872 19.5378 28.2368C19.5628 28.2368 19.5878 28.1864 19.5878 28.1864V17.5315H14.9407ZM22.1611 2.01512C19.6377 4.5592 17.1893 7.02771 14.7908 9.44585H15.8651L23.2355 2.01512H22.1611ZM26.2086 2.01512C23.6352 4.60958 21.2117 7.0529 18.8132 9.47103H19.7876C22.361 6.87657 24.7845 4.43325 27.183 2.01512H26.2086ZM10.2436 1.98993C7.89507 4.40806 5.57152 6.80101 3.24797 9.21914C3.24797 9.21914 3.24797 9.29471 3.24797 9.42066C3.62274 9.42066 4.02248 9.44584 4.39725 9.47103C4.34728 9.39546 4.27233 9.3199 4.22236 9.24433C6.64584 6.80101 9.06933 4.33249 11.4428 1.96474H10.2436V1.98993ZM17.9388 1.98993C15.5903 4.40806 13.2667 6.80101 10.9432 9.21914C10.9432 9.21914 10.9432 9.29471 10.9432 9.44585C11.3179 9.44585 11.7177 9.49622 12.0924 9.49622C12.0425 9.42066 11.9925 9.34509 11.9175 9.26952C14.341 6.8262 16.7895 4.35769 19.138 1.98993H17.9388ZM7.8451 9.47103C10.4185 6.87657 12.842 4.43325 15.2405 2.01512H14.5409C11.9675 4.60958 9.54403 7.0529 7.14553 9.47103H7.8451Z" fill="black"/>
<path d="M21.3867 28.2367V10.7556C24.185 7.93447 26.9582 5.1385 29.7315 2.34253C32.7046 4.83623 35.403 7.75815 38.2512 10.5793V28.2116H21.3867V28.2367Z" fill="white"/>
<path d="M1.77393 15.7179V11.2847H19.6128V15.7179H1.77393Z" fill="white"/>
<path d="M13.1415 17.5566V21.9899H1.74862C1.69865 20.5541 1.74862 19.0932 1.72363 17.5566H13.1415Z" fill="white"/>
<path d="M13.1415 23.8037V28.237H1.7736C1.69865 26.8012 1.7736 25.3402 1.72363 23.8037H13.1415Z" fill="white"/>
<path d="M14.9404 17.5315H19.5875V28.1864C19.5875 28.1864 19.5875 28.1864 19.5376 28.2368C19.5126 28.2368 19.4626 28.2872 19.4376 28.2872H14.9404V17.5315Z" fill="white"/>
<path d="M22.1614 2.01514H23.2357C20.8123 4.45846 18.3638 6.92698 15.8653 9.44587H14.791C17.2145 7.00254 19.663 4.53403 22.1614 2.01514Z" fill="white"/>
<path d="M26.2089 2.01514H27.1832L19.7879 9.47105H18.8135L26.2089 2.01514Z" fill="white"/>
<path d="M10.2437 1.98975H11.4429C9.09439 4.38269 6.64592 6.82602 4.22244 9.26934C4.27241 9.34491 4.34736 9.42047 4.39733 9.49604C4.02256 9.49604 3.62281 9.47086 3.24805 9.44567C3.24805 9.31972 3.24805 9.24415 3.24805 9.24415C5.57159 6.82602 7.92013 4.43307 10.2437 2.01494V1.98975Z" fill="white"/>
<path d="M17.939 1.98975H19.1382C16.7647 4.38269 14.3412 6.82602 11.9177 9.26934C11.9677 9.34491 12.0177 9.42047 12.0926 9.49604C11.6929 9.49604 11.3181 9.44567 10.9434 9.44567C10.9434 9.31972 10.9434 9.24415 10.9434 9.21896C13.2669 6.80083 15.6154 4.40788 17.939 1.98975Z" fill="white"/>
<path d="M7.84507 9.47105H7.14551C9.54401 7.05291 11.9675 4.6096 14.5409 2.01514H15.2405C12.8419 4.43327 10.4185 6.87659 7.84507 9.47105Z" fill="white"/>
</svg>
