<svg width="96" height="75" viewBox="0 0 96 75" fill="none" xmlns="http://www.w3.org/2000/svg">
<path d="M72 1.5838L39 25.5279V37.5L48 30.3168M24 17.1475L72 1.5L63.6 36.3028L24 17.1475Z" stroke="white" stroke-width="2" stroke-linecap="round" stroke-linejoin="round"/>
<path d="M8.1255 63.0879C9.29152 63.0879 10.3023 63.208 11.1577 63.4482C12.0132 63.6826 12.6724 64.0283 13.1353 64.4854C13.5982 64.9365 13.8325 65.4785 13.8384 66.1113C13.8325 66.7324 13.5982 67.2686 13.1353 67.7197C12.6724 68.1709 12.0103 68.5166 11.1489 68.7568C10.2935 68.9971 9.28566 69.1172 8.1255 69.1172C6.97706 69.1172 5.97218 68.9971 5.11085 68.7568C4.25538 68.5166 3.59327 68.1709 3.12452 67.7197C2.66163 67.2686 2.43019 66.7324 2.43019 66.1113C2.43019 65.4785 2.66163 64.9365 3.12452 64.4854C3.59327 64.0283 4.25538 63.6826 5.11085 63.4482C5.96632 63.208 6.9712 63.0879 8.1255 63.0879ZM8.1255 64.7578C7.01222 64.7578 6.15675 64.8721 5.55909 65.1006C4.96144 65.3291 4.66261 65.666 4.66261 66.1113C4.66261 66.5391 4.96144 66.8643 5.55909 67.0869C6.15675 67.3037 7.01222 67.4121 8.1255 67.4121C9.23878 67.4121 10.0972 67.3037 10.7007 67.0869C11.3042 66.8643 11.606 66.5391 11.606 66.1113C11.606 65.666 11.3042 65.3291 10.7007 65.1006C10.0972 64.8721 9.23878 64.7578 8.1255 64.7578ZM13.7505 55.1426C13.7505 56.0039 13.7241 56.751 13.6714 57.3838C13.6245 58.0166 13.4985 58.6992 13.2935 59.4316L11.0962 59.2207C11.2544 58.5645 11.3599 57.9639 11.4126 57.4189C11.4653 56.874 11.4976 56.2676 11.5093 55.5996H2.58839V53.8418H13.7505V55.1426ZM15.4732 62.0684H0.953625V60.2578H6.40284V57.4629H8.61769V60.2578H15.4732V62.0684ZM28.7705 57.6035H30.9326V59.4492H28.7705V64.582H26.5029V53.1211H28.7705V57.6035ZM24.4111 54.3164C24.4111 55.7461 24.1182 57.0352 23.5322 58.1836C22.9522 59.3262 22.1025 60.3047 20.9834 61.1191C19.8643 61.9336 18.5049 62.5664 16.9053 63.0176L15.9736 61.2422C17.7373 60.75 19.126 60.0615 20.1397 59.1768C21.1592 58.292 21.7598 57.2812 21.9414 56.1445H16.6768V54.3164H24.4111ZM29.3154 68.8359H18.3643V63.4043H20.6318V67.043H29.3154V68.8359ZM48.8262 69.1172H46.6992V53.1211H48.8262V69.1172ZM45.5566 68.3789H43.4473V60.416H41.3379V58.6055H43.4473V53.3848H45.5566V68.3789ZM40.0547 57.4102C40.0547 58.8633 40.3066 60.1846 40.8105 61.374C41.3203 62.5576 42.123 63.4629 43.2188 64.0898L41.9004 65.7422C41.209 65.332 40.6201 64.7871 40.1338 64.1074C39.6533 63.4277 39.2754 62.6426 39 61.752C38.7129 62.7246 38.3203 63.583 37.8223 64.3271C37.3242 65.0713 36.7207 65.6602 36.0117 66.0938L34.6582 64.4414C35.4082 63.9844 36.0234 63.3838 36.5039 62.6396C36.9902 61.8896 37.3418 61.0693 37.5586 60.1787C37.7812 59.2881 37.8926 58.3652 37.8926 57.4102V56.5488H35.2734V54.7559H42.4805V56.5488H40.0547V57.4102ZM64.7954 67.2539H50.1528V65.4258H56.3228V62.4727H51.6997V54.1406H53.9497V56.6191H60.9282V54.1406H63.1606V62.4727H58.5552V65.4258H64.7954V67.2539ZM60.9282 60.6797V58.4121H53.9497V60.6797H60.9282ZM77.9346 59.3789H80.29V61.2246H77.9346V69.1172H75.7197V53.1211H77.9346V59.3789ZM74.6299 57.3047H65.2256V55.5117H68.8467V53.3672H71.0967V55.5117H74.6299V57.3047ZM69.9717 58.2012C70.7451 58.2012 71.4394 58.3652 72.0547 58.6934C72.6758 59.0156 73.1621 59.4668 73.5137 60.0469C73.8711 60.627 74.0498 61.2832 74.0498 62.0156C74.0498 62.748 73.8711 63.4043 73.5137 63.9844C73.1621 64.5645 72.6758 65.0186 72.0547 65.3467C71.4394 65.6689 70.7451 65.8301 69.9717 65.8301C69.1924 65.8301 68.4922 65.6689 67.8711 65.3467C67.25 65.0186 66.7607 64.5645 66.4033 63.9844C66.0517 63.4043 65.876 62.748 65.876 62.0156C65.876 61.2832 66.0517 60.627 66.4033 60.0469C66.7607 59.4668 67.25 59.0156 67.8711 58.6934C68.4922 58.3652 69.1924 58.2012 69.9717 58.2012ZM69.9717 60.0117C69.5967 60.0176 69.2598 60.1025 68.9609 60.2666C68.668 60.4307 68.4365 60.6621 68.2666 60.9609C68.1025 61.2598 68.0205 61.6113 68.0205 62.0156C68.0205 62.4258 68.1025 62.7803 68.2666 63.0791C68.4365 63.3779 68.668 63.6064 68.9609 63.7646C69.2598 63.917 69.5967 63.9902 69.9717 63.9844C70.3467 63.9902 70.6806 63.917 70.9736 63.7646C71.2666 63.6064 71.4951 63.3779 71.6592 63.0791C71.8232 62.7803 71.9053 62.4258 71.9053 62.0156C71.9053 61.6113 71.8232 61.2598 71.6592 60.9609C71.4951 60.6621 71.2666 60.4307 70.9736 60.2666C70.6806 60.1025 70.3467 60.0176 69.9717 60.0117ZM93.9214 69.1172H91.6538V53.1211H93.9214V69.1172ZM89.1225 54.791C89.1225 56.502 88.8911 58.0576 88.4282 59.458C87.9712 60.8584 87.1977 62.1445 86.1079 63.3164C85.0181 64.4824 83.5503 65.502 81.7046 66.375L80.5268 64.582C81.8921 63.9375 83.0171 63.2197 83.9018 62.4287C84.7925 61.6377 85.4722 60.7617 85.9409 59.8008C86.4155 58.834 86.7143 57.75 86.8374 56.5488H81.3882V54.791H89.1225Z" fill="white"/>
</svg>
