<svg width="70" height="61" viewBox="0 0 70 61" fill="none" xmlns="http://www.w3.org/2000/svg">
<path d="M56 1.07449L27.125 22.3582V33L35 26.6149M14 14.9089L56 1L48.65 31.9358L14 14.9089Z" stroke="white" stroke-width="2" stroke-linecap="round" stroke-linejoin="round"/>
<path d="M6.20175 52.8135C7.04387 52.8135 7.77385 52.9002 8.39169 53.0737C9.00953 53.243 9.48561 53.4927 9.81992 53.8228C10.1542 54.1486 10.3235 54.54 10.3277 54.9971C10.3235 55.4456 10.1542 55.8328 9.81992 56.1587C9.48561 56.4845 9.00742 56.7342 8.38535 56.9077C7.76751 57.0812 7.03964 57.168 6.20175 57.168C5.37232 57.168 4.64658 57.0812 4.02451 56.9077C3.40667 56.7342 2.92848 56.4845 2.58994 56.1587C2.25563 55.8328 2.08847 55.4456 2.08847 54.9971C2.08847 54.54 2.25563 54.1486 2.58994 53.8228C2.92848 53.4927 3.40667 53.243 4.02451 53.0737C4.64234 52.9002 5.36809 52.8135 6.20175 52.8135ZM6.20175 54.0195C5.39772 54.0195 4.77988 54.1021 4.34824 54.2671C3.9166 54.4321 3.70078 54.6755 3.70078 54.9971C3.70078 55.306 3.9166 55.5409 4.34824 55.7017C4.77988 55.8582 5.39772 55.9365 6.20175 55.9365C7.00579 55.9365 7.62574 55.8582 8.06161 55.7017C8.49749 55.5409 8.71542 55.306 8.71542 54.9971C8.71542 54.6755 8.49749 54.4321 8.06161 54.2671C7.62574 54.1021 7.00579 54.0195 6.20175 54.0195ZM10.2643 47.0752C10.2643 47.6973 10.2452 48.2368 10.2071 48.6938C10.1733 49.1509 10.0823 49.6439 9.93417 50.1729L8.34726 50.0205C8.46152 49.5465 8.53769 49.1128 8.57578 48.7192C8.61386 48.3257 8.63714 47.8877 8.6456 47.4053H2.20273V46.1357H10.2643V47.0752ZM11.5084 52.0771H1.02206V50.7695H4.95761V48.751H6.55722V50.7695H11.5084V52.0771ZM21.112 48.8525H22.6736V50.1855H21.112V53.8926H19.4743V45.6152H21.112V48.8525ZM17.9636 46.4785C17.9636 47.5111 17.752 48.4421 17.3288 49.2715C16.9099 50.0967 16.2963 50.8034 15.488 51.3916C14.6797 51.9798 13.698 52.4368 12.5427 52.7627L11.8699 51.4805C13.1436 51.125 14.1465 50.6278 14.8786 49.9888C15.615 49.3498 16.0487 48.6198 16.1799 47.7988H12.3777V46.4785H17.9636ZM21.5056 56.9648H13.5964V53.042H15.2341V55.6699H21.5056V56.9648ZM35.5967 57.168H34.0605V45.6152H35.5967V57.168ZM33.2354 56.6348H31.7119V50.8838H30.1885V49.5762H31.7119V45.8057H33.2354V56.6348ZM29.2617 48.7129C29.2617 49.7624 29.4437 50.7166 29.8076 51.5757C30.1758 52.4305 30.7555 53.0843 31.5469 53.5371L30.5947 54.7305C30.0954 54.4342 29.6701 54.0407 29.3188 53.5498C28.9718 53.0589 28.6989 52.4919 28.5 51.8486C28.2926 52.5511 28.0091 53.1711 27.6494 53.7085C27.2897 54.2459 26.8538 54.6712 26.3418 54.9844L25.3643 53.791C25.9059 53.4609 26.3503 53.0272 26.6973 52.4897C27.0485 51.9481 27.3024 51.3556 27.459 50.7124C27.6198 50.0692 27.7002 49.4027 27.7002 48.7129V48.0908H25.8086V46.7959H31.0137V48.0908H29.2617V48.7129ZM47.13 55.8223H36.5548V54.502H41.0109V52.3691H37.672V46.3516H39.297V48.1416H44.337V46.3516H45.9494V52.3691H42.6232V54.502H47.13V55.8223ZM44.337 51.0742V49.4365H39.297V51.0742H44.337ZM56.6194 50.1348H58.3206V51.4678H56.6194V57.168H55.0198V45.6152H56.6194V50.1348ZM54.2327 48.6367H47.4407V47.3418H50.0559V45.793H51.6809V47.3418H54.2327V48.6367ZM50.8684 49.2842C51.427 49.2842 51.9285 49.4027 52.3728 49.6396C52.8214 49.8724 53.1726 50.1982 53.4265 50.6172C53.6847 51.0361 53.8137 51.5101 53.8137 52.0391C53.8137 52.568 53.6847 53.042 53.4265 53.4609C53.1726 53.8799 52.8214 54.2078 52.3728 54.4448C51.9285 54.6776 51.427 54.7939 50.8684 54.7939C50.3056 54.7939 49.7999 54.6776 49.3513 54.4448C48.9028 54.2078 48.5494 53.8799 48.2913 53.4609C48.0374 53.042 47.9104 52.568 47.9104 52.0391C47.9104 51.5101 48.0374 51.0361 48.2913 50.6172C48.5494 50.1982 48.9028 49.8724 49.3513 49.6396C49.7999 49.4027 50.3056 49.2842 50.8684 49.2842ZM50.8684 50.5918C50.5976 50.596 50.3543 50.6574 50.1385 50.7759C49.9269 50.8944 49.7597 51.0615 49.637 51.2773C49.5185 51.4932 49.4593 51.7471 49.4593 52.0391C49.4593 52.3353 49.5185 52.5913 49.637 52.8071C49.7597 53.0229 49.9269 53.188 50.1385 53.3022C50.3543 53.4123 50.5976 53.4652 50.8684 53.4609C51.1393 53.4652 51.3805 53.4123 51.5921 53.3022C51.8037 53.188 51.9687 53.0229 52.0872 52.8071C52.2057 52.5913 52.2649 52.3353 52.2649 52.0391C52.2649 51.7471 52.2057 51.4932 52.0872 51.2773C51.9687 51.0615 51.8037 50.8944 51.5921 50.7759C51.3805 50.6574 51.1393 50.596 50.8684 50.5918ZM68.1654 57.168H66.5277V45.6152H68.1654V57.168ZM64.6996 46.8213C64.6996 48.057 64.5325 49.1805 64.1982 50.1919C63.8681 51.2033 63.3095 52.1322 62.5224 52.9785C61.7353 53.8206 60.6752 54.557 59.3422 55.1875L58.4916 53.8926C59.4776 53.4271 60.2901 52.9087 60.9291 52.3374C61.5723 51.7661 62.0632 51.1335 62.4018 50.4395C62.7445 49.7412 62.9604 48.9583 63.0492 48.0908H59.1137V46.8213H64.6996Z" fill="white"/>
</svg>
