<svg width="48" height="63" viewBox="0 0 48 63" fill="none" xmlns="http://www.w3.org/2000/svg">
<path d="M44 1.56984L16.5 21.5233V31.5L24 25.514M4 14.5396L44 1.5L37 30.5023L4 14.5396Z" stroke="white" stroke-width="2" stroke-linecap="round" stroke-linejoin="round"/>
<path d="M11.3917 45.3164V57.7578H9.73739V45.3164H11.3917ZM8.84872 45.5215V57.1836H7.20809V50.9902H5.56747V49.582H7.20809V45.5215H8.84872ZM4.56942 48.6523C4.56942 50.7168 5.212 52.8086 7.03036 53.8477L6.00497 55.1328C4.89755 54.4766 4.1661 53.3623 3.74911 52.0293C3.31845 53.4785 2.56649 54.709 1.42489 55.4062L0.372156 54.1211C2.20419 53 2.88778 50.7578 2.88778 48.6523V47.9824H0.850672V46.5879H6.45614V47.9824H4.56942V48.6523ZM23.8122 54.8867V56.3086H12.4235V54.8867H17.2224V52.5898H13.6267V46.1094H15.3767V48.0371H20.8044V46.1094H22.5407V52.5898H18.9587V54.8867H23.8122ZM15.3767 51.1953H20.8044V49.4316H15.3767V51.1953ZM34.0315 45.3164V50.1836H35.8636V51.6191H34.0315V57.7578H32.3089V45.3164H34.0315ZM31.4612 47.1758V48.5703H24.1468V47.1758H26.9632V45.5078H28.7132V47.1758H31.4612ZM27.8382 49.2676C29.6565 49.2676 31.0101 50.498 31.0101 52.2344C31.0101 53.9707 29.6565 55.2012 27.8382 55.2012C26.0062 55.2012 24.6526 53.9707 24.6526 52.2344C24.6526 50.498 26.0062 49.2676 27.8382 49.2676ZM27.8382 50.6758C26.9632 50.6895 26.3206 51.2773 26.3206 52.2344C26.3206 53.2051 26.9632 53.7793 27.8382 53.7656C28.7132 53.7793 29.3421 53.2051 29.3421 52.2344C29.3421 51.2773 28.7132 50.6895 27.8382 50.6758ZM46.4657 45.3164V57.7578H44.7021V45.3164H46.4657ZM42.7333 46.6152C42.7333 50.3887 41.4071 53.5195 36.9638 55.625L36.0478 54.2305C39.2607 52.7129 40.6757 50.7441 40.956 47.9824H36.7177V46.6152H42.7333Z" fill="white"/>
</svg>
