<svg width="64" height="57" viewBox="0 0 64 57" fill="none" xmlns="http://www.w3.org/2000/svg">
<path d="M51.5 1.56518L25.375 20.1884V29.5L32.5 23.913M13.5 13.6703L51.5 1.5L44.85 28.5688L13.5 13.6703Z" stroke="white" stroke-width="2" stroke-linecap="round" stroke-linejoin="round"/>
<path d="M5.417 48.5586C6.19434 48.5586 6.86817 48.6387 7.43848 48.7988C8.0088 48.9551 8.44825 49.1855 8.75684 49.4902C9.06544 49.791 9.22169 50.1523 9.22559 50.5742C9.22169 50.9883 9.06544 51.3457 8.75684 51.6465C8.44825 51.9473 8.00684 52.1777 7.43262 52.3379C6.86231 52.498 6.19044 52.5781 5.417 52.5781C4.65137 52.5781 3.98145 52.498 3.40723 52.3379C2.83692 52.1777 2.39552 51.9473 2.08302 51.6465C1.77442 51.3457 1.62012 50.9883 1.62012 50.5742C1.62012 50.1523 1.77442 49.791 2.08302 49.4902C2.39552 49.1855 2.83692 48.9551 3.40723 48.7988C3.97755 48.6387 4.64747 48.5586 5.417 48.5586ZM5.417 49.6719C4.67481 49.6719 4.1045 49.748 3.70606 49.9004C3.30762 50.0527 3.10841 50.2773 3.10841 50.5742C3.10841 50.8594 3.30762 51.0762 3.70606 51.2246C4.1045 51.3691 4.67481 51.4414 5.417 51.4414C6.15919 51.4414 6.73145 51.3691 7.1338 51.2246C7.53614 51.0762 7.73731 50.8594 7.73731 50.5742C7.73731 50.2773 7.53614 50.0527 7.1338 49.9004C6.73145 49.748 6.15919 49.6719 5.417 49.6719ZM9.167 43.2617C9.167 43.8359 9.14942 44.334 9.11427 44.7559C9.08302 45.1777 8.99903 45.6328 8.86231 46.1211L7.39747 45.9805C7.50294 45.543 7.57325 45.1426 7.60841 44.7793C7.64356 44.416 7.66505 44.0117 7.67286 43.5664H1.72559V42.3945H9.167V43.2617ZM10.3154 47.8789H0.63575V46.6719H4.26856V44.8086H5.74512V46.6719H10.3154V47.8789ZM19.1803 44.9023H20.6217V46.1328H19.1803V49.5547H17.6686V41.9141H19.1803V44.9023ZM16.2741 42.7109C16.2741 43.6641 16.0788 44.5234 15.6882 45.2891C15.3014 46.0508 14.735 46.7031 13.9889 47.2461C13.2428 47.7891 12.3366 48.2109 11.2702 48.5117L10.6491 47.3281C11.8249 47 12.7507 46.541 13.4264 45.9512C14.1061 45.3613 14.5065 44.6875 14.6276 43.9297H11.1178V42.7109H16.2741ZM19.5436 52.3906H12.2428V48.7695H13.7546V51.1953H19.5436V52.3906ZM32.5508 52.5781H31.1328V41.9141H32.5508V52.5781ZM30.3711 52.0859H28.9648V46.7773H27.5586V45.5703H28.9648V42.0898H30.3711V52.0859ZM26.7031 44.7734C26.7031 45.7422 26.8711 46.623 27.207 47.416C27.5469 48.2051 28.082 48.8086 28.8125 49.2266L27.9336 50.3281C27.4727 50.0547 27.0801 49.6914 26.7559 49.2383C26.4355 48.7852 26.1836 48.2617 26 47.668C25.8086 48.3164 25.5469 48.8887 25.2148 49.3848C24.8828 49.8809 24.4805 50.2734 24.0078 50.5625L23.1055 49.4609C23.6055 49.1562 24.0156 48.7559 24.3359 48.2598C24.6602 47.7598 24.8945 47.2129 25.0391 46.6191C25.1875 46.0254 25.2617 45.4102 25.2617 44.7734V44.1992H23.5156V43.0039H28.3203V44.1992H26.7031V44.7734ZM43.1969 51.3359H33.4352V50.1172H37.5485V48.1484H34.4665V42.5938H35.9665V44.2461H40.6188V42.5938H42.1071V48.1484H39.0368V50.1172H43.1969V51.3359ZM40.6188 46.9531V45.4414H35.9665V46.9531H40.6188ZM51.9564 46.0859H53.5267V47.3164H51.9564V52.5781H50.4798V41.9141H51.9564V46.0859ZM49.7533 44.7031H43.4837V43.5078H45.8978V42.0781H47.3978V43.5078H49.7533V44.7031ZM46.6478 45.3008C47.1634 45.3008 47.6263 45.4102 48.0365 45.6289C48.4505 45.8438 48.7747 46.1445 49.0091 46.5312C49.2474 46.918 49.3665 47.3555 49.3665 47.8438C49.3665 48.332 49.2474 48.7695 49.0091 49.1562C48.7747 49.543 48.4505 49.8457 48.0365 50.0645C47.6263 50.2793 47.1634 50.3867 46.6478 50.3867C46.1283 50.3867 45.6615 50.2793 45.2474 50.0645C44.8333 49.8457 44.5072 49.543 44.2689 49.1562C44.0345 48.7695 43.9173 48.332 43.9173 47.8438C43.9173 47.3555 44.0345 46.918 44.2689 46.5312C44.5072 46.1445 44.8333 45.8438 45.2474 45.6289C45.6615 45.4102 46.1283 45.3008 46.6478 45.3008ZM46.6478 46.5078C46.3978 46.5117 46.1732 46.5684 45.974 46.6777C45.7786 46.7871 45.6243 46.9414 45.5111 47.1406C45.4017 47.3398 45.347 47.5742 45.347 47.8438C45.347 48.1172 45.4017 48.3535 45.5111 48.5527C45.6243 48.752 45.7786 48.9043 45.974 49.0098C46.1732 49.1113 46.3978 49.1602 46.6478 49.1562C46.8978 49.1602 47.1204 49.1113 47.3158 49.0098C47.5111 48.9043 47.6634 48.752 47.7728 48.5527C47.8822 48.3535 47.9368 48.1172 47.9368 47.8438C47.9368 47.5742 47.8822 47.3398 47.7728 47.1406C47.6634 46.9414 47.5111 46.7871 47.3158 46.6777C47.1204 46.5684 46.8978 46.5117 46.6478 46.5078ZM62.6143 52.5781H61.1025V41.9141H62.6143V52.5781ZM59.415 43.0273C59.415 44.168 59.2607 45.2051 58.9521 46.1387C58.6475 47.0723 58.1318 47.9297 57.4053 48.7109C56.6787 49.4883 55.7002 50.168 54.4697 50.75L53.6846 49.5547C54.5947 49.125 55.3447 48.6465 55.9346 48.1191C56.5283 47.5918 56.9814 47.0078 57.2939 46.3672C57.6103 45.7227 57.8096 45 57.8916 44.1992H54.2588V43.0273H59.415Z" fill="white"/>
</svg>
