<svg width="80" height="73" viewBox="0 0 80 73" fill="none" xmlns="http://www.w3.org/2000/svg">
<path d="M63 1.5838L30.6875 25.5279V37.5L39.5 30.3168M16 17.1475L63 1.5L54.775 36.3028L16 17.1475Z" stroke="white" stroke-width="2" stroke-linecap="round" stroke-linejoin="round"/>
<path d="M6.77125 62.8232C7.74293 62.8232 8.58522 62.9233 9.29811 63.1235C10.011 63.3188 10.5603 63.6069 10.9461 63.9878C11.3318 64.3638 11.5271 64.8154 11.532 65.3428C11.5271 65.8604 11.3318 66.3071 10.9461 66.6831C10.5603 67.0591 10.0086 67.3472 9.29078 67.5474C8.57789 67.7476 7.73805 67.8477 6.77125 67.8477C5.81422 67.8477 4.97682 67.7476 4.25904 67.5474C3.54615 67.3472 2.9944 67.0591 2.60377 66.6831C2.21803 66.3071 2.02516 65.8604 2.02516 65.3428C2.02516 64.8154 2.21803 64.3638 2.60377 63.9878C2.9944 63.6069 3.54615 63.3188 4.25904 63.1235C4.97194 62.9233 5.80934 62.8232 6.77125 62.8232ZM6.77125 64.2148C5.84352 64.2148 5.13063 64.3101 4.63258 64.5005C4.13453 64.6909 3.88551 64.9717 3.88551 65.3428C3.88551 65.6992 4.13453 65.9702 4.63258 66.1558C5.13063 66.3364 5.84352 66.4268 6.77125 66.4268C7.69899 66.4268 8.41432 66.3364 8.91725 66.1558C9.42018 65.9702 9.67164 65.6992 9.67164 65.3428C9.67164 64.9717 9.42018 64.6909 8.91725 64.5005C8.41432 64.3101 7.69899 64.2148 6.77125 64.2148ZM11.4588 56.2021C11.4588 56.9199 11.4368 57.5425 11.3928 58.0698C11.3538 58.5972 11.2488 59.166 11.0779 59.7764L9.24684 59.6006C9.37867 59.0537 9.46656 58.5532 9.51051 58.0991C9.55445 57.645 9.58131 57.1396 9.59108 56.583H2.15699V55.1182H11.4588V56.2021ZM12.8943 61.9736H0.794689V60.4648H5.3357V58.1357H7.18141V60.4648H12.8943V61.9736ZM23.9754 58.2529H25.7772V59.791H23.9754V64.0684H22.0858V54.5176H23.9754V58.2529ZM20.3426 55.5137C20.3426 56.7051 20.0985 57.7793 19.6102 58.7363C19.1268 59.6885 18.4188 60.5039 17.4862 61.1826C16.5536 61.8613 15.4207 62.3887 14.0877 62.7646L13.3114 61.2852C14.7811 60.875 15.9383 60.3013 16.783 59.564C17.6327 58.8267 18.1331 57.9844 18.2845 57.0371H13.8973V55.5137H20.3426ZM24.4295 67.6133H15.3036V63.0869H17.1932V66.1191H24.4295V67.6133ZM40.6885 67.8477H38.916V54.5176H40.6885V67.8477ZM37.9639 67.2324H36.2061V60.5967H34.4482V59.0879H36.2061V54.7373H37.9639V67.2324ZM33.3789 58.0918C33.3789 59.3027 33.5889 60.4038 34.0088 61.395C34.4336 62.3813 35.1025 63.1357 36.0156 63.6582L34.917 65.0352C34.3408 64.6934 33.8501 64.2393 33.4448 63.6729C33.0444 63.1064 32.7295 62.4521 32.5 61.71C32.2607 62.5205 31.9336 63.2358 31.5186 63.856C31.1035 64.4761 30.6006 64.9668 30.0098 65.3281L28.8818 63.9512C29.5068 63.5703 30.0195 63.0698 30.4199 62.4497C30.8252 61.8247 31.1182 61.1411 31.2988 60.3989C31.4844 59.6567 31.5772 58.8877 31.5772 58.0918V57.374H29.3945V55.8799H35.4004V57.374H33.3789V58.0918ZM53.9962 66.2949H41.794V64.7715H46.9356V62.3105H43.0831V55.3672H44.9581V57.4326H50.7735V55.3672H52.6339V62.3105H48.796V64.7715H53.9962V66.2949ZM50.7735 60.8164V58.9268H44.9581V60.8164H50.7735ZM64.9455 59.7324H66.9084V61.2705H64.9455V67.8477H63.0998V54.5176H64.9455V59.7324ZM62.1916 58.0039H54.3546V56.5098H57.3722V54.7227H59.2472V56.5098H62.1916V58.0039ZM58.3097 58.751C58.9543 58.751 59.5329 58.8877 60.0456 59.1611C60.5631 59.4297 60.9684 59.8057 61.2614 60.2891C61.5592 60.7725 61.7082 61.3193 61.7082 61.9297C61.7082 62.54 61.5592 63.0869 61.2614 63.5703C60.9684 64.0537 60.5631 64.4321 60.0456 64.7056C59.5329 64.9741 58.9543 65.1084 58.3097 65.1084C57.6603 65.1084 57.0768 64.9741 56.5592 64.7056C56.0417 64.4321 55.6339 64.0537 55.3361 63.5703C55.0431 63.0869 54.8966 62.54 54.8966 61.9297C54.8966 61.3193 55.0431 60.7725 55.3361 60.2891C55.6339 59.8057 56.0417 59.4297 56.5592 59.1611C57.0768 58.8877 57.6603 58.751 58.3097 58.751ZM58.3097 60.2598C57.9972 60.2646 57.7165 60.3354 57.4674 60.4722C57.2233 60.6089 57.0304 60.8018 56.8888 61.0508C56.7521 61.2998 56.6838 61.5928 56.6838 61.9297C56.6838 62.2715 56.7521 62.5669 56.8888 62.8159C57.0304 63.0649 57.2233 63.2554 57.4674 63.3872C57.7165 63.5142 57.9972 63.5752 58.3097 63.5703C58.6222 63.5752 58.9005 63.5142 59.1447 63.3872C59.3888 63.2554 59.5793 63.0649 59.716 62.8159C59.8527 62.5669 59.9211 62.2715 59.9211 61.9297C59.9211 61.5928 59.8527 61.2998 59.716 61.0508C59.5793 60.8018 59.3888 60.6089 59.1447 60.4722C58.9005 60.3354 58.6222 60.2646 58.3097 60.2598ZM78.2678 67.8477H76.3782V54.5176H78.2678V67.8477ZM74.2688 55.9092C74.2688 57.335 74.0759 58.6313 73.6902 59.7983C73.3093 60.9653 72.6648 62.0371 71.7566 63.0137C70.8484 63.9854 69.6252 64.835 68.0871 65.5625L67.1057 64.0684C68.2434 63.5312 69.1809 62.9331 69.9182 62.2739C70.6604 61.6147 71.2268 60.8848 71.6174 60.084C72.0129 59.2783 72.2619 58.375 72.3645 57.374H67.8235V55.9092H74.2688Z" fill="white"/>
</svg>
