<svg width="140" height="39" viewBox="0 0 140 39" fill="none" xmlns="http://www.w3.org/2000/svg">
<path d="M40 14.3489V34.1725L39.6752 34.5H0.324794L0 34.1725V14.4244L9.84385 4.5H30.0312C30.406 4.82746 30.8307 5.1801 31.2305 5.55793C34.1287 8.47985 37.0269 11.4018 39.975 14.3741L40 14.3489ZM21.3866 32.7368H38.2261V15.1045C35.3779 12.2834 32.6796 9.36146 29.7064 6.86776C26.9332 9.66373 24.1599 12.4597 21.3616 15.2809V32.762L21.3866 32.7368ZM1.77389 20.2179H19.6127V15.7846H1.77389V20.2179ZM13.1418 22.0567H1.72392C1.72392 23.568 1.69894 25.0542 1.74891 26.4899H13.1418V22.0567ZM13.1418 28.3035H1.72392C1.74891 29.8149 1.67395 31.301 1.77389 32.7368H13.1418V28.3035ZM14.9407 22.0315V32.7872H19.4378C19.4628 32.7872 19.5128 32.7872 19.5378 32.7368C19.5628 32.7368 19.5878 32.6864 19.5878 32.6864V22.0315H14.9407ZM22.1611 6.51512C19.6377 9.0592 17.1893 11.5277 14.7908 13.9458H15.8651L23.2355 6.51512H22.1611ZM26.2086 6.51512C23.6352 9.10958 21.2117 11.5529 18.8132 13.971H19.7876C22.361 11.3766 24.7845 8.93325 27.183 6.51512H26.2086ZM10.2436 6.48993C7.89507 8.90806 5.57152 11.301 3.24797 13.7191C3.24797 13.7191 3.24797 13.7947 3.24797 13.9207C3.62274 13.9207 4.02248 13.9458 4.39725 13.971C4.34728 13.8955 4.27233 13.8199 4.22236 13.7443C6.64584 11.301 9.06933 8.83249 11.4428 6.46474H10.2436V6.48993ZM17.9388 6.48993C15.5903 8.90806 13.2667 11.301 10.9432 13.7191C10.9432 13.7191 10.9432 13.7947 10.9432 13.9458C11.3179 13.9458 11.7177 13.9962 12.0924 13.9962C12.0425 13.9207 11.9925 13.8451 11.9175 13.7695C14.341 11.3262 16.7895 8.85769 19.138 6.48993H17.9388ZM7.84509 13.971C10.4185 11.3766 12.842 8.93325 15.2405 6.51512H14.5409C11.9675 9.10958 9.54403 11.5529 7.14553 13.971H7.84509Z" fill="black"/>
<path d="M21.3867 32.7365V15.2554C24.185 12.4342 26.9582 9.63826 29.7315 6.84229C32.7046 9.33599 35.403 12.2579 38.2512 15.0791V32.7113H21.3867V32.7365Z" fill="white"/>
<path d="M1.77393 20.2179V15.7847H19.6128V20.2179H1.77393Z" fill="white"/>
<path d="M13.1415 22.0566V26.4899H1.74862C1.69865 25.0541 1.74862 23.5932 1.72363 22.0566H13.1415Z" fill="white"/>
<path d="M13.1415 28.3037V32.737H1.7736C1.69865 31.3012 1.7736 29.8402 1.72363 28.3037H13.1415Z" fill="white"/>
<path d="M14.9404 22.0317H19.5875V32.6867C19.5875 32.6867 19.5875 32.6867 19.5376 32.737C19.5126 32.737 19.4626 32.7874 19.4376 32.7874H14.9404V22.0317Z" fill="white"/>
<path d="M22.1614 6.51514H23.2357C20.8123 8.95846 18.3638 11.427 15.8653 13.9459H14.791C17.2145 11.5025 19.663 9.03403 22.1614 6.51514Z" fill="white"/>
<path d="M26.2089 6.51514H27.1832L19.7879 13.971H18.8135L26.2089 6.51514Z" fill="white"/>
<path d="M10.2437 6.48975H11.4429C9.09439 8.88269 6.64592 11.326 4.22244 13.7693C4.27241 13.8449 4.34736 13.9205 4.39733 13.996C4.02256 13.996 3.62281 13.9709 3.24805 13.9457C3.24805 13.8197 3.24805 13.7442 3.24805 13.7442C5.57159 11.326 7.92013 8.93307 10.2437 6.51494V6.48975Z" fill="white"/>
<path d="M17.939 6.48975H19.1382C16.7647 8.88269 14.3412 11.326 11.9177 13.7693C11.9677 13.8449 12.0177 13.9205 12.0926 13.996C11.6929 13.996 11.3181 13.9457 10.9434 13.9457C10.9434 13.8197 10.9434 13.7442 10.9434 13.719C13.2669 11.3008 15.6154 8.90788 17.939 6.48975Z" fill="white"/>
<path d="M7.84507 13.971H7.14551C9.54401 11.5529 11.9675 9.1096 14.5409 6.51514H15.2405C12.8419 8.93327 10.4185 11.3766 7.84507 13.971Z" fill="white"/>
<path d="M72.8105 21.6875H51.6855V19.1484H60.6738V17.168H54.25V9.24609H70.2715V11.7598H57.4746V14.6289H70.3984V17.168H63.8477V19.1484H72.8105V21.6875ZM62.1973 22.8555C63.8646 22.8555 65.2992 23.0205 66.501 23.3506C67.7028 23.6807 68.6253 24.1673 69.2686 24.8105C69.9118 25.4453 70.2376 26.2155 70.2461 27.1211C70.2376 28.0098 69.9118 28.7715 69.2686 29.4062C68.6253 30.041 67.6986 30.5234 66.4883 30.8535C65.2865 31.1921 63.8561 31.3613 62.1973 31.3613C60.5215 31.3613 59.0742 31.1921 57.8555 30.8535C56.6452 30.5234 55.7142 30.041 55.0625 29.4062C54.4193 28.7715 54.0977 28.0098 54.0977 27.1211C54.0977 26.2155 54.4193 25.4453 55.0625 24.8105C55.7057 24.1673 56.6325 23.6807 57.8428 23.3506C59.0615 23.0205 60.513 22.8555 62.1973 22.8555ZM62.1973 25.3184C60.5977 25.3184 59.3958 25.4707 58.5918 25.7754C57.7878 26.0801 57.39 26.5286 57.3984 27.1211C57.39 27.722 57.7835 28.1706 58.5791 28.4668C59.3747 28.7546 60.5807 28.8984 62.1973 28.8984C63.7799 28.8984 64.9733 28.7546 65.7773 28.4668C66.5814 28.1706 66.9876 27.722 66.9961 27.1211C66.9876 26.5286 66.5771 26.0801 65.7646 25.7754C64.9521 25.4707 63.763 25.3184 62.1973 25.3184ZM77.7229 23.0332C78.8655 23.0163 79.9361 22.957 80.9348 22.8555C81.9335 22.7539 82.9449 22.5931 83.969 22.373L84.4007 25.0898C83.0803 25.3691 81.7854 25.5596 80.5159 25.6611C79.2464 25.7542 77.7737 25.8008 76.0979 25.8008H74.4729V10.4395H77.7229V23.0332ZM93.6175 31.3359H90.5706V8.23047H93.6175V31.3359ZM88.6663 30.3203H85.594V18.1582H80.9729V15.543H85.594V8.66211H88.6663V30.3203ZM104.217 13.4609C104.217 14.9505 104.42 16.3724 104.827 17.7266C105.241 19.0723 105.868 20.2699 106.706 21.3193C107.543 22.3604 108.585 23.1517 109.829 23.6934L107.848 26.2832C106.604 25.6738 105.542 24.8232 104.662 23.7314C103.79 22.6312 103.104 21.349 102.605 19.8848C102.089 21.4505 101.374 22.8174 100.46 23.9854C99.5539 25.1533 98.4621 26.0547 97.1841 26.6895L95.1529 24.0488C96.4224 23.4818 97.4888 22.6481 98.3521 21.5479C99.2154 20.4476 99.8586 19.1992 100.282 17.8027C100.713 16.4062 100.933 14.959 100.942 13.4609V10.0078H104.217V13.4609ZM114.983 31.3867H111.784V18.1074H107.239V15.4922H111.784V8.23047H114.983V31.3867ZM136.856 21.5859H133.632V16.2031H129.975V13.5625H133.632V8.23047H136.856V21.5859ZM136.856 31.082H121.317V22.5508H136.856V31.082ZM124.567 28.4922H133.682V25.0898H124.567V28.4922ZM130.712 12.0137H126.116C126.133 12.9277 126.336 13.8164 126.725 14.6797C127.123 15.543 127.716 16.3258 128.503 17.0283C129.29 17.7223 130.263 18.2598 131.423 18.6406L129.823 21.2051C128.57 20.7904 127.496 20.1895 126.598 19.4023C125.71 18.6068 125.007 17.6673 124.491 16.584C123.958 17.7773 123.221 18.8099 122.282 19.6816C121.351 20.5449 120.225 21.1882 118.905 21.6113L117.255 19.0723C118.457 18.6914 119.468 18.137 120.289 17.4092C121.11 16.6729 121.728 15.8434 122.142 14.9209C122.557 13.9899 122.781 13.0208 122.815 12.0137H118.169V9.39844H130.712V12.0137Z" fill="white"/>
</svg>
