<svg width="140" height="40" viewBox="0 0 140 40" fill="none" xmlns="http://www.w3.org/2000/svg">
<path d="M40 14.8489V34.6725L39.6752 35H0.324794L0 34.6725V14.9244L9.84385 5H30.0312C30.406 5.32746 30.8307 5.6801 31.2305 6.05793C34.1287 8.97985 37.0269 11.9018 39.975 14.8741L40 14.8489ZM21.3866 33.2368H38.2261V15.6045C35.3779 12.7834 32.6796 9.86146 29.7064 7.36776C26.9332 10.1637 24.1599 12.9597 21.3616 15.7809V33.262L21.3866 33.2368ZM1.77389 20.7179H19.6127V16.2846H1.77389V20.7179ZM13.1418 22.5567H1.72392C1.72392 24.068 1.69894 25.5542 1.74891 26.9899H13.1418V22.5567ZM13.1418 28.8035H1.72392C1.74891 30.3149 1.67395 31.801 1.77389 33.2368H13.1418V28.8035ZM14.9407 22.5315V33.2872H19.4378C19.4628 33.2872 19.5128 33.2872 19.5378 33.2368C19.5628 33.2368 19.5878 33.1864 19.5878 33.1864V22.5315H14.9407ZM22.1611 7.01512C19.6377 9.5592 17.1893 12.0277 14.7908 14.4458H15.8651L23.2355 7.01512H22.1611ZM26.2086 7.01512C23.6352 9.60958 21.2117 12.0529 18.8132 14.471H19.7876C22.361 11.8766 24.7845 9.43325 27.183 7.01512H26.2086ZM10.2436 6.98993C7.89507 9.40806 5.57152 11.801 3.24797 14.2191C3.24797 14.2191 3.24797 14.2947 3.24797 14.4207C3.62274 14.4207 4.02248 14.4458 4.39725 14.471C4.34728 14.3955 4.27233 14.3199 4.22236 14.2443C6.64584 11.801 9.06933 9.33249 11.4428 6.96474H10.2436V6.98993ZM17.9388 6.98993C15.5903 9.40806 13.2667 11.801 10.9432 14.2191C10.9432 14.2191 10.9432 14.2947 10.9432 14.4458C11.3179 14.4458 11.7177 14.4962 12.0924 14.4962C12.0425 14.4207 11.9925 14.3451 11.9175 14.2695C14.341 11.8262 16.7895 9.35769 19.138 6.98993H17.9388ZM7.8451 14.471C10.4185 11.8766 12.842 9.43325 15.2405 7.01512H14.5409C11.9675 9.60958 9.54403 12.0529 7.14553 14.471H7.8451Z" fill="black"/>
<path d="M21.3867 33.2367V15.7556C24.185 12.9345 26.9582 10.1385 29.7315 7.34253C32.7046 9.83623 35.403 12.7582 38.2512 15.5793V33.2116H21.3867V33.2367Z" fill="white"/>
<path d="M1.77393 20.7179V16.2847H19.6128V20.7179H1.77393Z" fill="white"/>
<path d="M13.1415 22.5566V26.9899H1.74862C1.69865 25.5541 1.74862 24.0932 1.72363 22.5566H13.1415Z" fill="white"/>
<path d="M13.1415 28.8037V33.237H1.7736C1.69865 31.8012 1.7736 30.3402 1.72363 28.8037H13.1415Z" fill="white"/>
<path d="M14.9404 22.5315H19.5875V33.1864C19.5875 33.1864 19.5875 33.1864 19.5376 33.2368C19.5126 33.2368 19.4626 33.2872 19.4376 33.2872H14.9404V22.5315Z" fill="white"/>
<path d="M22.1614 7.01514H23.2357C20.8123 9.45846 18.3638 11.927 15.8653 14.4459H14.791C17.2145 12.0025 19.663 9.53403 22.1614 7.01514Z" fill="white"/>
<path d="M26.2089 7.01514H27.1832L19.7879 14.471H18.8135L26.2089 7.01514Z" fill="white"/>
<path d="M10.2437 6.98975H11.4429C9.09439 9.38269 6.64592 11.826 4.22244 14.2693C4.27241 14.3449 4.34736 14.4205 4.39733 14.496C4.02256 14.496 3.62281 14.4709 3.24805 14.4457C3.24805 14.3197 3.24805 14.2442 3.24805 14.2442C5.57159 11.826 7.92013 9.43307 10.2437 7.01494V6.98975Z" fill="white"/>
<path d="M17.939 6.98975H19.1382C16.7647 9.38269 14.3412 11.826 11.9177 14.2693C11.9677 14.3449 12.0177 14.4205 12.0926 14.496C11.6929 14.496 11.3181 14.4457 10.9434 14.4457C10.9434 14.3197 10.9434 14.2442 10.9434 14.219C13.2669 11.8008 15.6154 9.40788 17.939 6.98975Z" fill="white"/>
<path d="M7.84507 14.471H7.14551C9.54401 12.0529 11.9675 9.6096 14.5409 7.01514H15.2405C12.8419 9.43327 10.4185 11.8766 7.84507 14.471Z" fill="white"/>
<path d="M72.8105 22.1875H51.6855V19.6484H60.6738V17.668H54.25V9.74609H70.2715V12.2598H57.4746V15.1289H70.3984V17.668H63.8477V19.6484H72.8105V22.1875ZM62.1973 23.3555C63.8646 23.3555 65.2992 23.5205 66.501 23.8506C67.7028 24.1807 68.6253 24.6673 69.2686 25.3105C69.9118 25.9453 70.2376 26.7155 70.2461 27.6211C70.2376 28.5098 69.9118 29.2715 69.2686 29.9062C68.6253 30.541 67.6986 31.0234 66.4883 31.3535C65.2865 31.6921 63.8561 31.8613 62.1973 31.8613C60.5215 31.8613 59.0742 31.6921 57.8555 31.3535C56.6452 31.0234 55.7142 30.541 55.0625 29.9062C54.4193 29.2715 54.0977 28.5098 54.0977 27.6211C54.0977 26.7155 54.4193 25.9453 55.0625 25.3105C55.7057 24.6673 56.6325 24.1807 57.8428 23.8506C59.0615 23.5205 60.513 23.3555 62.1973 23.3555ZM62.1973 25.8184C60.5977 25.8184 59.3958 25.9707 58.5918 26.2754C57.7878 26.5801 57.39 27.0286 57.3984 27.6211C57.39 28.222 57.7835 28.6706 58.5791 28.9668C59.3747 29.2546 60.5807 29.3984 62.1973 29.3984C63.7799 29.3984 64.9733 29.2546 65.7773 28.9668C66.5814 28.6706 66.9876 28.222 66.9961 27.6211C66.9876 27.0286 66.5771 26.5801 65.7646 26.2754C64.9521 25.9707 63.763 25.8184 62.1973 25.8184ZM77.7229 23.5332C78.8655 23.5163 79.9361 23.457 80.9348 23.3555C81.9335 23.2539 82.9449 23.0931 83.969 22.873L84.4007 25.5898C83.0803 25.8691 81.7854 26.0596 80.5159 26.1611C79.2464 26.2542 77.7737 26.3008 76.0979 26.3008H74.4729V10.9395H77.7229V23.5332ZM93.6175 31.8359H90.5706V8.73047H93.6175V31.8359ZM88.6663 30.8203H85.594V18.6582H80.9729V16.043H85.594V9.16211H88.6663V30.8203ZM104.217 13.9609C104.217 15.4505 104.42 16.8724 104.827 18.2266C105.241 19.5723 105.868 20.7699 106.706 21.8193C107.543 22.8604 108.585 23.6517 109.829 24.1934L107.848 26.7832C106.604 26.1738 105.542 25.3232 104.662 24.2314C103.79 23.1312 103.104 21.849 102.605 20.3848C102.089 21.9505 101.374 23.3174 100.46 24.4854C99.5539 25.6533 98.4621 26.5547 97.1841 27.1895L95.1529 24.5488C96.4224 23.9818 97.4888 23.1481 98.3521 22.0479C99.2154 20.9476 99.8586 19.6992 100.282 18.3027C100.713 16.9062 100.933 15.459 100.942 13.9609V10.5078H104.217V13.9609ZM114.983 31.8867H111.784V18.6074H107.239V15.9922H111.784V8.73047H114.983V31.8867ZM136.856 22.0859H133.632V16.7031H129.975V14.0625H133.632V8.73047H136.856V22.0859ZM136.856 31.582H121.317V23.0508H136.856V31.582ZM124.567 28.9922H133.682V25.5898H124.567V28.9922ZM130.712 12.5137H126.116C126.133 13.4277 126.336 14.3164 126.725 15.1797C127.123 16.043 127.716 16.8258 128.503 17.5283C129.29 18.2223 130.263 18.7598 131.423 19.1406L129.823 21.7051C128.57 21.2904 127.496 20.6895 126.598 19.9023C125.71 19.1068 125.007 18.1673 124.491 17.084C123.958 18.2773 123.221 19.3099 122.282 20.1816C121.351 21.0449 120.225 21.6882 118.905 22.1113L117.255 19.5723C118.457 19.1914 119.468 18.637 120.289 17.9092C121.11 17.1729 121.728 16.3434 122.142 15.4209C122.557 14.4899 122.781 13.5208 122.815 12.5137H118.169V9.89844H130.712V12.5137Z" fill="black"/>
</svg>
