<?xml version="1.0" encoding="UTF-8"?>
<svg xmlns="http://www.w3.org/2000/svg" version="1.1" viewBox="0 0 595.3 841.9">
  <defs>
    <style>
      .cls-1 {
        fill: #fff;
      }
    </style>
  </defs>
  <!-- Generator: Adobe Illustrator 28.6.0, SVG Export Plug-In . SVG Version: 1.2.0 Build 709)  -->
  <g>
    <g id="_레이어_1" data-name="레이어_1">
      <g>
        <path d="M377.7,292.8v78.7l-1.3,1.3h-157.5l-1.3-1.3v-78.4l39.4-39.4h80.8c1.5,1.3,3.2,2.7,4.8,4.2,11.6,11.6,23.2,23.2,35,35h0ZM303.2,365.8h67.4v-70c-11.4-11.2-22.2-22.8-34.1-32.7-11.1,11.1-22.2,22.2-33.4,33.4v69.4h0ZM224.7,316.1h71.4v-17.6h-71.4v17.6ZM270.2,323.4h-45.7c0,6-.1,11.9.1,17.6h45.6v-17.6ZM270.2,348.2h-45.7c.1,6-.2,11.9.2,17.6h45.5v-17.6h0ZM277.4,323.3v42.7h18c.1,0,.3,0,.4-.2.1,0,.2-.2.2-.2v-42.3h-18.6ZM306.3,261.7c-10.1,10.1-19.9,19.9-29.5,29.5h4.3l29.5-29.5h-4.3ZM322.5,261.7c-10.3,10.3-20,20-29.6,29.6h3.9c10.3-10.3,20-20,29.6-29.6h-3.9ZM258.6,261.6c-9.4,9.6-18.7,19.1-28,28.7,0,0,0,.3,0,.8,1.5,0,3.1.1,4.6.2-.2-.3-.5-.6-.7-.9,9.7-9.7,19.4-19.5,28.9-28.9h-4.8,0ZM289.4,261.6c-9.4,9.6-18.7,19.1-28,28.7,0,0,0,.3,0,.9,1.5,0,3.1.2,4.6.2-.2-.3-.4-.6-.7-.9,9.7-9.7,19.5-19.5,28.9-28.9h-4.8ZM249,291.3c10.3-10.3,20-20,29.6-29.6h-2.8c-10.3,10.3-20,20-29.6,29.6h2.8Z"/>
        <path class="cls-1" d="M303.2,365.8v-69.4c11.2-11.2,22.3-22.3,33.4-33.4,11.9,9.9,22.7,21.5,34.1,32.7v70h-67.5Z"/>
        <path class="cls-1" d="M224.7,316.1v-17.6h71.4v17.6h-71.4Z"/>
        <path class="cls-1" d="M270.2,323.4v17.6h-45.6c-.2-5.7,0-11.5-.1-17.6h45.7Z"/>
        <path class="cls-1" d="M270.2,348.2v17.6h-45.5c-.3-5.7,0-11.5-.2-17.6h45.7,0Z"/>
        <path class="cls-1" d="M277.4,323.3h18.6v42.3c0,0,0,0-.2.2-.1,0-.3.2-.4.2h-18v-42.7h0Z"/>
        <path class="cls-1" d="M306.3,261.7h4.3c-9.7,9.7-19.5,19.5-29.5,29.5h-4.3c9.7-9.7,19.5-19.5,29.5-29.5h0Z"/>
        <path class="cls-1" d="M322.5,261.7h3.9l-29.6,29.6h-3.9l29.6-29.6Z"/>
        <path class="cls-1" d="M258.6,261.6h4.8c-9.4,9.5-19.2,19.2-28.9,28.9.2.3.5.6.7.9-1.5,0-3.1-.1-4.6-.2,0-.5,0-.8,0-.8,9.3-9.6,18.7-19.1,28-28.7h0Z"/>
        <path class="cls-1" d="M289.4,261.6h4.8c-9.5,9.5-19.2,19.2-28.9,28.9.2.3.4.6.7.9-1.6,0-3.1-.2-4.6-.2,0-.5,0-.8,0-.9,9.3-9.6,18.7-19.1,28-28.7h0Z"/>
        <path class="cls-1" d="M249,291.3h-2.8c9.6-9.6,19.3-19.3,29.6-29.6h2.8c-9.6,9.6-19.3,19.3-29.6,29.6Z"/>
      </g>
    </g>
  </g>
</svg>