<svg width="121" height="35" viewBox="0 0 121 35" fill="none" xmlns="http://www.w3.org/2000/svg">
<path d="M34.5714 12.9928V30.3384L34.2907 30.625H0.280715L0 30.3384V13.0589L8.5079 4.375H25.9555C26.2795 4.66153 26.6465 4.97009 26.9921 5.30069C29.497 7.85737 32.0018 10.4141 34.5498 13.0148L34.5714 12.9928ZM18.4841 29.0822H33.0383V13.6539C30.5766 11.1855 28.2445 8.62878 25.6748 6.44679C23.278 8.89324 20.8811 11.3397 18.4625 13.8083V29.1043L18.4841 29.0822ZM1.53315 18.1282H16.951V14.249H1.53315V18.1282ZM11.3583 19.7371H1.48996C1.48996 21.0595 1.46837 22.3599 1.51156 23.6162H11.3583V19.7371ZM11.3583 25.2031H1.48996C1.51156 26.5255 1.44677 27.8259 1.53315 29.0822H11.3583V25.2031ZM12.913 19.7151V29.1263H16.7998C16.8214 29.1263 16.8646 29.1263 16.8862 29.0822C16.9079 29.0822 16.9295 29.0381 16.9295 29.0381V19.7151H12.913ZM19.1535 6.13823C16.9726 8.3643 14.8565 10.5242 12.7835 12.6401H13.712L20.0821 6.13823H19.1535ZM22.6517 6.13823C20.4276 8.40838 18.333 10.5463 16.26 12.6621H17.1021C19.3263 10.392 21.4209 8.25409 23.4939 6.13823H22.6517ZM8.8534 6.11619C6.8236 8.23205 4.81539 10.3259 2.80718 12.4417C2.80718 12.4417 2.80718 12.5079 2.80718 12.6181C3.13108 12.6181 3.47657 12.6401 3.80048 12.6621C3.75729 12.5961 3.69252 12.5299 3.64933 12.4638C5.74391 10.3259 7.8385 8.16593 9.88985 6.09415H8.8534V6.11619ZM15.5043 6.11619C13.4745 8.23205 11.4662 10.3259 9.45806 12.4417C9.45806 12.4417 9.45806 12.5079 9.45806 12.6401C9.7819 12.6401 10.1274 12.6842 10.4513 12.6842C10.4082 12.6181 10.365 12.552 10.3001 12.4858C12.3947 10.3479 14.5109 8.18798 16.5407 6.11619H15.5043ZM6.78041 12.6621C9.00456 10.392 11.0992 8.25409 13.1722 6.13823H12.5675C10.3433 8.40838 8.24877 10.5463 6.17578 12.6621H6.78041Z" fill="black"/>
<path d="M18.4844 29.0822V13.7862C20.9029 11.3178 23.2997 8.87128 25.6967 6.4248C28.2663 8.60679 30.5985 11.1635 33.0601 13.632V29.0602H18.4844V29.0822Z" fill="white"/>
<path d="M1.5332 18.1281V14.249H16.9511V18.1281H1.5332Z" fill="white"/>
<path d="M11.358 19.7371V23.6162H1.51134C1.46816 22.3599 1.51134 21.0816 1.48975 19.7371H11.358Z" fill="white"/>
<path d="M11.358 25.2031V29.0823H1.53293C1.46816 27.8259 1.53293 26.5476 1.48975 25.2031H11.358Z" fill="white"/>
<path d="M12.9126 19.7151H16.929V29.0381C16.929 29.0381 16.929 29.0381 16.8859 29.0822C16.8643 29.0822 16.8211 29.1263 16.7995 29.1263H12.9126V19.7151Z" fill="white"/>
<path d="M19.1538 6.13818H20.0823C17.9878 8.27609 15.8716 10.4361 13.7122 12.6401H12.7837C14.8783 10.5021 16.9945 8.34221 19.1538 6.13818Z" fill="white"/>
<path d="M22.652 6.13818H23.4941L17.1024 12.6621H16.2603L22.652 6.13818Z" fill="white"/>
<path d="M8.85337 6.11597H9.88982C7.86004 8.20979 5.74386 10.3477 3.64928 12.4856C3.69247 12.5517 3.75725 12.6179 3.80044 12.6839C3.47653 12.6839 3.13103 12.662 2.80713 12.6399C2.80713 12.5297 2.80713 12.4636 2.80713 12.4636C4.81533 10.3477 6.84514 8.25387 8.85337 6.13801V6.11597Z" fill="white"/>
<path d="M15.5042 6.11597H16.5407C14.4893 8.20979 12.3947 10.3477 10.3001 12.4856C10.3433 12.5517 10.3865 12.6179 10.4512 12.6839C10.1058 12.6839 9.78186 12.6399 9.45801 12.6399C9.45801 12.5297 9.45801 12.4636 9.45801 12.4416C11.4662 10.3256 13.496 8.23183 15.5042 6.11597Z" fill="white"/>
<path d="M6.7804 12.6621H6.17578C8.24877 10.5462 10.3434 8.40834 12.5675 6.13818H13.1722C11.0991 8.25405 9.00458 10.392 6.7804 12.6621Z" fill="white"/>
<path d="M62.9289 19.4141H44.6709V17.1923H52.4394V15.4595H46.8874V8.52783H60.7345V10.7273H49.6743V13.2378H60.8442V15.4595H55.1825V17.1923H62.9289V19.4141ZM53.7561 20.4361C55.1971 20.4361 56.437 20.5804 57.4757 20.8693C58.5144 21.1581 59.3117 21.5839 59.8677 22.1467C60.4236 22.7021 60.7052 23.3761 60.7126 24.1685C60.7052 24.9461 60.4236 25.6126 59.8677 26.1679C59.3117 26.7234 58.5108 27.1455 57.4647 27.4343C56.426 27.7306 55.1898 27.8786 53.7561 27.8786C52.3077 27.8786 51.0568 27.7306 50.0035 27.4343C48.9575 27.1455 48.1528 26.7234 47.5896 26.1679C47.0337 25.6126 46.7557 24.9461 46.7557 24.1685C46.7557 23.3761 47.0337 22.7021 47.5896 22.1467C48.1455 21.5839 48.9465 21.1581 49.9926 20.8693C51.0459 20.5804 52.3004 20.4361 53.7561 20.4361ZM53.7561 22.5911C52.3736 22.5911 51.3348 22.7244 50.6399 22.991C49.945 23.2576 49.6012 23.65 49.6085 24.1685C49.6012 24.6942 49.9413 25.0868 50.6289 25.346C51.3166 25.5978 52.3589 25.7236 53.7561 25.7236C55.1239 25.7236 56.1554 25.5978 56.8502 25.346C57.5452 25.0868 57.8963 24.6942 57.9036 24.1685C57.8963 23.65 57.5415 23.2576 56.8393 22.991C56.137 22.7244 55.1093 22.5911 53.7561 22.5911ZM67.1747 20.5915C68.1622 20.5768 69.0875 20.5249 69.9506 20.4361C70.8138 20.3472 71.688 20.2065 72.5731 20.0139L72.9462 22.3911C71.805 22.6355 70.6858 22.8021 69.5886 22.891C68.4914 22.9724 67.2186 23.0132 65.7702 23.0132H64.3657V9.57206H67.1747V20.5915ZM80.9121 27.8564H78.2787V7.63916H80.9121V27.8564ZM76.6329 26.9678H73.9775V16.3259H69.9836V14.0376H73.9775V8.01685H76.6329V26.9678ZM90.0731 12.2158C90.0731 13.5192 90.2486 14.7633 90.6003 15.9483C90.9582 17.1258 91.5001 18.1737 92.2243 19.0919C92.9477 20.0028 93.8483 20.6952 94.9235 21.1692L93.2113 23.4353C92.1362 22.9021 91.2183 22.1578 90.4577 21.2025C89.7041 20.2398 89.1112 19.1179 88.6799 17.8367C88.2339 19.2067 87.616 20.4027 86.826 21.4247C86.0429 22.4466 85.0992 23.2354 83.9947 23.7908L82.2392 21.4802C83.3364 20.9841 84.258 20.2546 85.0042 19.2919C85.7503 18.3291 86.3062 17.2368 86.6722 16.0149C87.0447 14.7929 87.2348 13.5266 87.2426 12.2158V9.19432H90.0731V12.2158ZM99.378 27.9009H96.6132V16.2815H92.685V13.9932H96.6132V7.63916H99.378V27.9009ZM118.283 19.3252H115.496V14.6152H112.335V12.3047H115.496V7.63916H118.283V19.3252ZM118.283 27.6343H104.852V20.1694H118.283V27.6343ZM107.661 25.3682H115.539V22.3911H107.661V25.3682ZM112.972 10.9495H109C109.015 11.7492 109.19 12.5268 109.526 13.2822C109.87 14.0376 110.383 14.7226 111.063 15.3373C111.743 15.9445 112.584 16.4148 113.587 16.748L112.204 18.992C111.121 18.6291 110.193 18.1033 109.417 17.4145C108.649 16.7184 108.042 15.8964 107.596 14.9485C107.135 15.9926 106.498 16.8962 105.686 17.6589C104.882 18.4143 103.909 18.9772 102.768 19.3474L101.342 17.1258C102.381 16.7925 103.254 16.3074 103.964 15.6705C104.674 15.0263 105.208 14.3005 105.565 13.4933C105.924 12.6787 106.118 11.8307 106.147 10.9495H102.132V8.66113H112.972V10.9495Z" fill="white"/>
</svg>
