<svg width="20" height="10" viewBox="0 0 20 10" fill="none" xmlns="http://www.w3.org/2000/svg">
<path d="M17.6728 9.58632C17.7608 9.66953 17.8644 9.73459 17.9776 9.77777C18.0908 9.82095 18.2114 9.84141 18.3325 9.83798C18.4536 9.83456 18.5729 9.80731 18.6834 9.7578C18.794 9.70829 18.8938 9.63749 18.977 9.54943C19.0602 9.46137 19.1252 9.35778 19.1684 9.24458C19.2116 9.13138 19.2321 9.01079 19.2286 8.88968C19.2252 8.76857 19.198 8.64933 19.1485 8.53875C19.0989 8.42817 19.0281 8.32843 18.9401 8.24522L10.6389 0.405195C10.4676 0.243288 10.2409 0.153076 10.0052 0.153076C9.76955 0.153076 9.54281 0.243288 9.37156 0.405195L1.06943 8.24522C0.97945 8.32788 0.906784 8.4276 0.855663 8.53858C0.804542 8.64957 0.775983 8.7696 0.771644 8.89172C0.767307 9.01383 0.787275 9.13559 0.830391 9.24992C0.873508 9.36426 0.938909 9.46888 1.0228 9.55773C1.10669 9.64657 1.2074 9.71785 1.31908 9.76745C1.43076 9.81704 1.55117 9.84394 1.67334 9.84661C1.7955 9.84927 1.91697 9.82763 2.0307 9.78294C2.14443 9.73826 2.24815 9.67143 2.33583 9.58632L10.0052 2.34399L17.6728 9.58632Z" fill="white"/>
</svg>
