<svg width="14" height="14" viewBox="0 0 14 14" fill="none" xmlns="http://www.w3.org/2000/svg">
<path d="M13.8725 13.23L9.63558 8.96722C10.4253 8.02143 10.9012 6.80464 10.9012 5.476C10.9012 2.46574 8.46086 0.0253906 5.4506 0.0253906C2.44034 0.0253906 0 2.46574 0 5.476C0 8.48626 2.44034 10.9266 5.4506 10.9266C6.81827 10.9266 8.06755 10.4217 9.02467 9.58924L13.2557 13.8468C13.4259 14.0171 13.7022 14.0171 13.8725 13.8468C14.0425 13.6765 14.0425 13.4005 13.8725 13.23H13.8725ZM5.4506 10.0617C2.91804 10.0617 0.864902 8.00857 0.864902 5.476C0.864902 2.94343 2.91804 0.890293 5.4506 0.890293C7.98317 0.890293 10.0363 2.94343 10.0363 5.476C10.0363 8.00857 7.98317 10.0617 5.4506 10.0617Z" fill="black"/>
</svg>
