<svg width="30" height="31" viewBox="0 0 30 31" fill="none" xmlns="http://www.w3.org/2000/svg">
<path d="M6 25.8057V24.5679C6 22.2698 6.91292 20.0658 8.53792 18.4408C10.1629 16.8158 12.3669 15.9029 14.665 15.9029M14.665 15.9029C16.9631 15.9029 19.1671 16.8158 20.7921 18.4408C22.4171 20.0658 23.33 22.2698 23.33 24.5679V25.8057M14.665 15.9029C15.9782 15.9029 17.2376 15.3812 18.1662 14.4526C19.0948 13.524 19.6164 12.2646 19.6164 10.9514C19.6164 9.63823 19.0948 8.37881 18.1662 7.45024C17.2376 6.52167 15.9782 6 14.665 6C13.3518 6 12.0924 6.52167 11.1638 7.45024C10.2352 8.37881 9.71357 9.63823 9.71357 10.9514C9.71357 12.2646 10.2352 13.524 11.1638 14.4526C12.0924 15.3812 13.3518 15.9029 14.665 15.9029Z" stroke="black" stroke-width="1.3" stroke-linecap="round" stroke-linejoin="round"/>
</svg>
