<svg width="11" height="12" viewBox="0 0 11 12" fill="none" xmlns="http://www.w3.org/2000/svg">
<path d="M1.48035 3.18499C1.43421 3.13392 1.37994 3.09399 1.32064 3.06748C1.26133 3.04098 1.19816 3.02842 1.13471 3.03052C1.07126 3.03263 1.00879 3.04935 0.950857 3.07974C0.892927 3.11013 0.840672 3.15359 0.797077 3.20764C0.753482 3.26169 0.719401 3.32527 0.696779 3.39475C0.674157 3.46423 0.663437 3.53826 0.665232 3.61259C0.667027 3.68693 0.681301 3.76012 0.70724 3.82799C0.733178 3.89586 0.770273 3.95709 0.816406 4.00816L5.16535 8.82035C5.25507 8.91973 5.37386 8.9751 5.49732 8.9751C5.62079 8.9751 5.73957 8.91973 5.82929 8.82035L10.1787 4.00816C10.2259 3.95742 10.2639 3.89621 10.2907 3.82809C10.3175 3.75997 10.3325 3.68629 10.3347 3.61134C10.337 3.53639 10.3265 3.46165 10.304 3.39147C10.2814 3.3213 10.2471 3.25708 10.2032 3.20255C10.1592 3.14801 10.1064 3.10426 10.0479 3.07382C9.98943 3.04338 9.92634 3.02687 9.86234 3.02523C9.79834 3.0236 9.7347 3.03688 9.67512 3.06431C9.61554 3.09173 9.5612 3.13276 9.51527 3.18499L5.49732 7.63032L1.48035 3.18499Z" fill="#555555"/>
</svg>
