<svg width="19" height="19" viewBox="0 0 19 19" fill="none" xmlns="http://www.w3.org/2000/svg">
<path d="M3.56876 15.8334H15.4311C15.5435 15.8334 15.6523 15.7936 15.7381 15.721C15.8239 15.6483 15.8812 15.5476 15.8998 15.4367L14.4748 6.88675C14.4862 6.81867 14.4826 6.74893 14.4643 6.68238C14.446 6.61582 14.4134 6.55406 14.3688 6.50139C14.3241 6.44872 14.2686 6.4064 14.206 6.37738C14.1433 6.34837 14.0751 6.33335 14.0061 6.33337H4.99376C4.92474 6.33335 4.85654 6.34837 4.79391 6.37738C4.73128 6.4064 4.67573 6.44872 4.63112 6.50139C4.58651 6.55406 4.55391 6.61582 4.5356 6.68238C4.51729 6.74893 4.51371 6.81867 4.5251 6.88675L3.1001 15.4367C3.11865 15.5476 3.17592 15.6483 3.26174 15.721C3.34755 15.7936 3.45634 15.8334 3.56876 15.8334Z" stroke="#999999" stroke-width="1.3"/>
<path d="M7.44165 8.23335V4.75002C7.44165 4.33009 7.60847 3.92737 7.9054 3.63043C8.20233 3.3335 8.60506 3.16669 9.02498 3.16669H9.97498C10.3949 3.16669 10.7976 3.3335 11.0946 3.63043C11.3915 3.92737 11.5583 4.33009 11.5583 4.75002V8.23335" stroke="#999999" stroke-width="1.3"/>
</svg>
