<svg width="19" height="19" viewBox="0 0 19 19" fill="none" xmlns="http://www.w3.org/2000/svg">
<path d="M9.5 6.80831C9.5 6.80831 9.5 6.33331 8.89833 5.54165C8.20167 4.62331 7.1725 3.95831 5.9375 3.95831C3.96625 3.95831 2.375 5.54956 2.375 7.52081C2.375 8.25706 2.59667 9.4129 2.97667 9.97498C4.5125 13.0625 9.5 16.625 9.5 16.625M9.5 6.80831C9.5 6.80831 9.5 6.33331 10.1017 5.54165C10.7983 4.62331 11.8275 3.95831 13.0625 3.95831C15.0337 3.95831 16.625 5.54956 16.625 7.52081C16.625 8.25706 16.4033 9.4129 16.0233 9.97498C15.4375 11.6375 9.5 16.625 9.5 16.625" stroke="#999999" stroke-width="1.3" stroke-linecap="round" stroke-linejoin="round"/>
</svg>
