<svg width="24" height="24" viewBox="0 0 24 24" fill="none" xmlns="http://www.w3.org/2000/svg">
<path d="M4.50802 20H19.492C19.634 20.0001 19.7714 19.9497 19.8798 19.858C19.9882 19.7663 20.0606 19.6391 20.084 19.499L18.284 8.699C18.2984 8.61301 18.2939 8.52491 18.2708 8.44084C18.2476 8.35678 18.2065 8.27876 18.1501 8.21223C18.0938 8.1457 18.0236 8.09224 17.9445 8.05559C17.8654 8.01894 17.7792 7.99997 17.692 8H6.30802C6.22083 7.99997 6.13468 8.01894 6.05557 8.05559C5.97646 8.09224 5.90628 8.1457 5.84993 8.21223C5.79359 8.27876 5.75241 8.35678 5.72929 8.44084C5.70616 8.52491 5.70163 8.61301 5.71602 8.699L3.91602 19.499C3.93945 19.6391 4.01179 19.7663 4.12019 19.858C4.22859 19.9497 4.36601 20.0001 4.50802 20Z" stroke="#999999" stroke-width="1.3"/>
<path d="M9.40002 10.4V6C9.40002 5.46957 9.61074 4.96086 9.98581 4.58579C10.3609 4.21071 10.8696 4 11.4 4H12.6C13.1305 4 13.6392 4.21071 14.0142 4.58579C14.3893 4.96086 14.6 5.46957 14.6 6V10.4" stroke="#999999" stroke-width="1.3"/>
</svg>
