<svg width="50" height="38" viewBox="0 0 50 38" fill="none" xmlns="http://www.w3.org/2000/svg">
<path d="M50 12.5611V37.3407L49.594 37.75H0.405992L0 37.3407V12.6555L12.3048 0.25H37.539C38.0075 0.65932 38.5384 1.10013 39.0381 1.57242C42.6608 5.22481 46.2836 8.8772 49.9688 12.5926L50 12.5611ZM26.7333 35.546H47.7826V13.5057C44.2224 9.97922 40.8495 6.32683 37.133 3.2097C33.6665 6.70466 30.1999 10.1996 26.7021 13.7261V35.5775L26.7333 35.546ZM2.21736 19.8974H24.5159V14.3558H2.21736V19.8974ZM16.4272 22.1958H2.1549C2.1549 24.085 2.12367 25.9427 2.18613 27.7374H16.4272V22.1958ZM16.4272 30.0044H2.1549C2.18613 31.8936 2.09244 33.7513 2.21736 35.546H16.4272V30.0044ZM18.6758 22.1644V35.6089H24.2973C24.3285 35.6089 24.391 35.6089 24.4222 35.546C24.4535 35.546 24.4847 35.483 24.4847 35.483V22.1644H18.6758ZM27.7014 2.7689C24.5472 5.949 21.4866 9.03464 18.4884 12.0573H19.8314L29.0443 2.7689H27.7014ZM32.7608 2.7689C29.544 6.01197 26.5147 9.06612 23.5165 12.0888H24.7345C27.9513 8.84572 30.9806 5.79157 33.9788 2.7689H32.7608ZM12.8045 2.73741C9.86883 5.76008 6.9644 8.75126 4.05996 11.7739C4.05996 11.7739 4.05996 11.8684 4.05996 12.0258C4.52842 12.0258 5.0281 12.0573 5.49656 12.0888C5.4341 11.9943 5.34041 11.8999 5.27795 11.8054C8.30731 8.75126 11.3367 5.66562 14.3036 2.70592H12.8045V2.73741ZM22.4235 2.73741C19.4878 5.76008 16.5834 8.75126 13.6789 11.7739C13.6789 11.7739 13.6789 11.8684 13.6789 12.0573C14.1474 12.0573 14.6471 12.1203 15.1156 12.1203C15.0531 12.0258 14.9906 11.9314 14.8969 11.8369C17.9263 8.78275 20.9869 5.69711 23.9225 2.73741H22.4235ZM9.80637 12.0888C13.0231 8.84572 16.0525 5.79157 19.0506 2.7689H18.1761C14.9594 6.01197 11.93 9.06612 8.93191 12.0888H9.80637Z" fill="black"/>
<path d="M26.7334 35.546V13.6946C30.2312 10.1681 33.6978 6.67319 37.1644 3.17822C40.8808 6.29535 44.2537 9.94775 47.814 13.4742V35.5145H26.7334V35.546Z" fill="white"/>
<path d="M2.21729 19.8975V14.356H24.5159V19.8975H2.21729Z" fill="white"/>
<path d="M16.4266 22.1958V27.7374H2.18553C2.12307 25.9427 2.18553 24.1165 2.1543 22.1958H16.4266Z" fill="white"/>
<path d="M16.4266 30.0046V35.5462H2.21676C2.12307 33.7515 2.21676 31.9253 2.1543 30.0046H16.4266Z" fill="white"/>
<path d="M18.6758 22.1643H24.4847V35.483C24.4847 35.483 24.4846 35.4829 24.4222 35.5459C24.391 35.5459 24.3285 35.6089 24.2973 35.6089H18.6758V22.1643Z" fill="white"/>
<path d="M27.7018 2.76904H29.0447C26.0153 5.8232 22.9547 8.90884 19.8317 12.0575H18.4888C21.5181 9.0033 24.5787 5.91766 27.7018 2.76904Z" fill="white"/>
<path d="M32.7608 2.76904H33.9788L24.7346 12.0889H23.5166L32.7608 2.76904Z" fill="white"/>
<path d="M12.8046 2.7373H14.3037C11.368 5.72849 8.3074 8.78264 5.27805 11.8368C5.34051 11.9313 5.4342 12.0257 5.49666 12.1202C5.0282 12.1202 4.52852 12.0887 4.06006 12.0572C4.06006 11.8998 4.06006 11.8053 4.06006 11.8053C6.96449 8.78264 9.90016 5.79146 12.8046 2.76879V2.7373Z" fill="white"/>
<path d="M22.4237 2.7373H23.9228C20.9559 5.72849 17.9265 8.78264 14.8972 11.8368C14.9596 11.9313 15.0221 12.0257 15.1158 12.1202C14.6161 12.1202 14.1477 12.0572 13.6792 12.0572C13.6792 11.8998 13.6792 11.8053 13.6792 11.7738C16.5836 8.75115 19.5193 5.75998 22.4237 2.7373Z" fill="white"/>
<path d="M9.8061 12.0889H8.93164C11.9298 9.06626 14.9591 6.01212 18.1759 2.76904H19.0503C16.0522 5.79171 13.0228 8.84586 9.8061 12.0889Z" fill="white"/>
</svg>
