<svg width="42" height="31" viewBox="0 0 42 31" fill="none" xmlns="http://www.w3.org/2000/svg">
<path d="M42 10.1971V30.6039L41.659 30.9409H0.341034L0 30.6039V10.2749L10.336 0.0585938H31.5328C31.9263 0.395681 32.3723 0.758697 32.792 1.14764C35.8351 4.1555 38.8782 7.16335 41.9738 10.2231L42 10.1971ZM22.456 29.1259H40.1374V10.975C37.1468 8.07089 34.3135 5.06304 31.1918 2.49599C28.2798 5.3742 25.3679 8.2524 22.4297 11.1565V29.1518L22.456 29.1259ZM1.86258 16.2388H20.5934V11.6751H1.86258V16.2388ZM13.7989 18.1316H1.81012C1.81012 19.6874 1.78388 21.2173 1.83635 22.6953H13.7989V18.1316ZM13.7989 24.5622H1.81012C1.83635 26.118 1.75765 27.6479 1.86258 29.1259H13.7989V24.5622ZM15.6877 18.1057V29.1777H20.4097C20.436 29.1777 20.4884 29.1777 20.5147 29.1259C20.5409 29.1259 20.5671 29.074 20.5671 29.074V18.1057H15.6877ZM23.2692 2.13298C20.6196 4.75189 18.0487 7.293 15.5303 9.78226H16.6583L24.3972 2.13298H23.2692ZM27.519 2.13298C24.817 4.80375 22.2723 7.31893 19.7539 9.80818H20.777C23.4791 7.13742 26.0237 4.62224 28.5422 2.13298H27.519ZM10.7558 2.10705C8.28982 4.59631 5.85009 7.05963 3.41037 9.54889C3.41037 9.54889 3.41037 9.62668 3.41037 9.75633C3.80387 9.75633 4.22361 9.78226 4.61711 9.80818C4.56464 9.7304 4.48594 9.65261 4.43348 9.57482C6.97814 7.05963 9.52279 4.51851 12.015 2.08112H10.7558V2.10705ZM18.8357 2.10705C16.3698 4.59631 13.93 7.05963 11.4903 9.54889C11.4903 9.54889 11.4903 9.62668 11.4903 9.78226C11.8838 9.78226 12.3036 9.83412 12.6971 9.83412C12.6446 9.75633 12.5921 9.67854 12.5134 9.60075C15.0581 7.08556 17.629 4.54445 20.0949 2.10705H18.8357ZM8.23735 9.80818C10.9394 7.13742 13.4841 4.62224 16.0025 2.13298H15.268C12.5659 4.80375 10.0212 7.31893 7.50281 9.80818H8.23735Z" fill="black"/>
<path d="M22.4561 29.1275V11.1322C25.3942 8.22809 28.3061 5.34988 31.2181 2.47168C34.3399 5.03873 37.1731 8.04658 40.1637 10.9507V29.1016H22.4561V29.1275Z" fill="white"/>
<path d="M1.86279 16.2394V11.6758H20.5936V16.2394H1.86279Z" fill="white"/>
<path d="M13.7983 18.1309V22.6945H1.83581C1.78334 21.2165 1.8358 19.7126 1.80957 18.1309H13.7983Z" fill="white"/>
<path d="M13.7983 24.5635V29.1271H1.86204C1.78334 27.6491 1.86204 26.1452 1.80957 24.5635H13.7983Z" fill="white"/>
<path d="M15.6875 18.1064H20.567V29.0747C20.567 29.0747 20.5669 29.0747 20.5145 29.1266C20.4882 29.1266 20.4358 29.1785 20.4095 29.1785H15.6875V18.1064Z" fill="white"/>
<path d="M23.2692 2.13477H24.3972C21.8526 4.64995 19.2817 7.19107 16.6583 9.78405H15.5303C18.0749 7.26886 20.6458 4.72774 23.2692 2.13477Z" fill="white"/>
<path d="M27.5191 2.13477H28.5422L20.777 9.80997H19.7539L27.5191 2.13477Z" fill="white"/>
<path d="M10.7556 2.1084H12.0148C9.54882 4.57173 6.97792 7.08691 4.43327 9.6021C4.48573 9.67989 4.56443 9.75768 4.6169 9.83547C4.2234 9.83547 3.80366 9.80954 3.41016 9.78361C3.41016 9.65396 3.41016 9.57617 3.41016 9.57617C5.84988 7.08691 8.31584 4.62359 10.7556 2.13433V2.1084Z" fill="white"/>
<path d="M18.8356 2.1084H20.0949C17.6027 4.57173 15.058 7.08691 12.5133 9.6021C12.5658 9.67989 12.6183 9.75768 12.697 9.83547C12.2772 9.83547 11.8837 9.78361 11.4902 9.78361C11.4902 9.65396 11.4902 9.57617 11.4902 9.55024C13.93 7.06098 16.3959 4.59766 18.8356 2.1084Z" fill="white"/>
<path d="M8.23698 9.80997H7.50244C10.0209 7.32071 12.5655 4.80553 15.2676 2.13477H16.0021C13.4837 4.62402 10.939 7.1392 8.23698 9.80997Z" fill="white"/>
</svg>
