<svg width="68" height="68" viewBox="0 0 68 68" fill="none" xmlns="http://www.w3.org/2000/svg">
<path d="M34.0001 0.666687C27.4074 0.666687 20.9627 2.62165 15.4811 6.28437C9.99945 9.94708 5.72703 15.153 3.20411 21.2439C0.681191 27.3348 0.0210797 34.037 1.30725 40.503C2.59343 46.9691 5.76812 52.9085 10.4299 57.5702C15.0916 62.232 21.0311 65.4067 27.4971 66.6929C33.9631 67.979 40.6653 67.3189 46.7562 64.796C52.8471 62.2731 58.053 58.0007 61.7157 52.519C65.3785 47.0374 67.3334 40.5927 67.3334 34C67.3334 29.6226 66.4712 25.2881 64.7961 21.2439C63.1209 17.1997 60.6656 13.5251 57.5703 10.4298C54.475 7.33451 50.8004 4.87919 46.7562 3.20404C42.712 1.52888 38.3775 0.666687 34.0001 0.666687ZM27.3334 49V19L47.3334 34L27.3334 49Z" fill="white" fill-opacity="0.9"/>
</svg>
