<svg width="6" height="11" viewBox="0 0 6 11" fill="none" xmlns="http://www.w3.org/2000/svg">
<path d="M0.142097 9.65687C0.0966511 9.70458 0.061123 9.7607 0.0375405 9.82203C0.013958 9.88335 0.00278239 9.94869 0.0046535 10.0143C0.0065246 10.0799 0.0214057 10.1445 0.0484453 10.2044C0.0754853 10.2643 0.114154 10.3184 0.162246 10.3635C0.210338 10.4085 0.266911 10.4438 0.328733 10.4672C0.390556 10.4906 0.456417 10.5017 0.522558 10.4998C0.588699 10.4979 0.653825 10.4832 0.714215 10.4564C0.774606 10.4295 0.829079 10.3912 0.874525 10.3435L5.15625 5.84611C5.24468 5.75333 5.29395 5.63049 5.29395 5.50281C5.29395 5.37513 5.24468 5.25229 5.15625 5.15951L0.874526 0.66165C0.82938 0.612898 0.774918 0.573531 0.714306 0.545834C0.653693 0.518138 0.588138 0.502666 0.521446 0.500315C0.454755 0.497965 0.388257 0.508784 0.325816 0.532142C0.263375 0.555501 0.206235 0.590935 0.157715 0.636385C0.109196 0.681837 0.0702623 0.736398 0.0431785 0.796901C0.0160946 0.857404 0.00139988 0.922643 -5.30511e-05 0.988827C-0.00150598 1.05501 0.0103119 1.12082 0.0347146 1.18244C0.0591176 1.24405 0.0956186 1.30024 0.142098 1.34775L4.09741 5.50281L0.142097 9.65687Z" fill="black"/>
</svg>
