<svg width="7" height="13" viewBox="0 0 7 13" fill="none" xmlns="http://www.w3.org/2000/svg">
<path d="M0.170809 11.4882C0.116274 11.5455 0.0736399 11.6128 0.0453411 11.6864C0.0170422 11.76 0.00363165 11.8384 0.00587707 11.9172C0.00812201 11.9959 0.0259791 12.0734 0.0584264 12.1453C0.0908742 12.2172 0.137278 12.282 0.194988 12.3361C0.252698 12.3902 0.320586 12.4325 0.394773 12.4606C0.468959 12.4887 0.547993 12.502 0.627363 12.4998C0.706732 12.4975 0.784882 12.4798 0.857351 12.4476C0.92982 12.4154 0.995187 12.3694 1.04972 12.3122L6.1878 6.91533C6.29391 6.80399 6.35303 6.65659 6.35303 6.50337C6.35303 6.35015 6.29391 6.20275 6.1878 6.09141L1.04972 0.693979C0.995548 0.635477 0.930194 0.588235 0.857459 0.555C0.784724 0.521764 0.706058 0.503198 0.626028 0.500377C0.545998 0.497556 0.466201 0.510539 0.391272 0.53857C0.316343 0.566601 0.247775 0.609121 0.18955 0.663661C0.131327 0.718202 0.0846072 0.783677 0.0521069 0.85628C0.0196062 0.928884 0.00197225 1.00717 0.000228449 1.08659C-0.00151487 1.16601 0.0126667 1.24499 0.0419502 1.31892C0.0712333 1.39286 0.115035 1.46029 0.17081 1.5173L4.91718 6.50337L0.170809 11.4882Z" fill="black"/>
</svg>
