<svg width="8" height="15" viewBox="0 0 8 15" fill="none" xmlns="http://www.w3.org/2000/svg">
<path d="M0.199521 13.3196C0.135897 13.3864 0.0861577 13.465 0.0531422 13.5508C0.0201266 13.6367 0.0044812 13.7282 0.00710064 13.82C0.00972008 13.9119 0.0305529 14.0023 0.0684085 14.0862C0.106264 14.1701 0.160402 14.2457 0.22773 14.3088C0.295059 14.372 0.374261 14.4213 0.460812 14.454C0.547364 14.4868 0.63957 14.5023 0.732167 14.4997C0.824765 14.4971 0.91594 14.4765 1.00049 14.4389C1.08503 14.4013 1.1613 14.3476 1.22492 14.2809L7.21934 7.98455C7.34313 7.85466 7.41211 7.68269 7.41211 7.50393C7.41211 7.32518 7.34313 7.15321 7.21934 7.02331L1.22492 0.726309C1.16172 0.658057 1.08547 0.602941 1.00061 0.564166C0.915756 0.525392 0.823978 0.503731 0.73061 0.50044C0.637242 0.497149 0.544146 0.512296 0.456728 0.544999C0.369311 0.577701 0.289314 0.627307 0.221387 0.690938C0.153459 0.754569 0.0989527 0.830956 0.0610354 0.91566C0.0231181 1.00036 0.00254511 1.0917 0.000510903 1.18436C-0.00152331 1.27702 0.015022 1.36915 0.0491859 1.45541C0.0833499 1.54167 0.134451 1.62034 0.199522 1.68685L5.73696 7.50393L0.199521 13.3196Z" fill="black"/>
</svg>
