<svg width="31" height="25" viewBox="0 0 31 25" fill="none" xmlns="http://www.w3.org/2000/svg">
<path d="M15.8708 0.0808105C16.6826 0.0853712 18.7136 0.105134 20.8723 0.191785L21.6384 0.225229C23.8108 0.327083 25.9817 0.503427 27.0595 0.802906C28.4961 1.20728 29.6241 2.38392 30.0056 3.87676C30.6137 6.24827 30.6897 10.8727 30.6988 11.9931L30.7004 12.2242V12.4887C30.6897 13.6091 30.6137 18.2351 30.0056 20.6051C29.6195 22.1025 28.49 23.2806 27.0595 23.6789C25.9817 23.9784 23.8108 24.1547 21.6384 24.2566L20.8723 24.2915C18.7136 24.3767 16.6826 24.398 15.8708 24.401L15.5136 24.4025H15.1259C13.4081 24.3919 6.2236 24.3144 3.93722 23.6789C2.50214 23.2745 1.37263 22.0979 0.991064 20.6051C0.382983 18.2335 0.306973 13.6091 0.297852 12.4887V11.9931C0.306973 10.8727 0.382983 6.24675 0.991064 3.87676C1.3772 2.37936 2.50671 1.2012 3.93874 0.804426C6.2236 0.167462 13.4096 0.0899318 15.1274 0.0808105H15.8708ZM12.4579 6.92172V17.5631L21.5792 12.2424L12.4579 6.92172Z" fill="#888888"/>
</svg>
