<svg width="31" height="31" viewBox="0 0 31 31" fill="none" xmlns="http://www.w3.org/2000/svg">
<path d="M29.2872 0.0404053H2.22764C1.78414 0.0404053 1.35881 0.216585 1.0452 0.530188C0.7316 0.843791 0.55542 1.26913 0.55542 1.71263V28.7722C0.55542 29.2157 0.7316 29.6411 1.0452 29.9547C1.35881 30.2683 1.78414 30.4444 2.22764 30.4444H16.7912V18.6629H12.8387V14.1023H16.7912V10.6818C16.7093 9.87878 16.8041 9.06756 17.0689 8.30504C17.3338 7.54252 17.7622 6.84718 18.3242 6.26778C18.8863 5.68838 19.5682 5.23895 20.3223 4.95102C21.0764 4.66309 21.8844 4.54363 22.6896 4.60101C23.8728 4.59373 25.0554 4.65464 26.2316 4.78344V8.88798H23.8145C21.8991 8.88798 21.5342 9.8001 21.5342 11.1227V14.0567H26.0948L25.5019 18.6173H21.5342V30.4444H29.2872C29.5068 30.4444 29.7243 30.4012 29.9272 30.3172C30.1301 30.2331 30.3144 30.1099 30.4697 29.9547C30.625 29.7994 30.7481 29.615 30.8322 29.4122C30.9162 29.2093 30.9595 28.9918 30.9595 28.7722V1.71263C30.9595 1.49303 30.9162 1.27558 30.8322 1.0727C30.7481 0.869813 30.625 0.685468 30.4697 0.530188C30.3144 0.374908 30.1301 0.251733 29.9272 0.167696C29.7243 0.0836587 29.5068 0.0404053 29.2872 0.0404053Z" fill="#888888"/>
</svg>
