<svg width="31" height="31" viewBox="0 0 31 31" fill="none" xmlns="http://www.w3.org/2000/svg">
<path d="M8.85746 0.0404053H21.6272C26.4918 0.0404053 30.4443 3.99293 30.4443 8.85758V21.6273C30.4443 23.9657 29.5154 26.2084 27.8618 27.862C26.2083 29.5155 23.9656 30.4444 21.6272 30.4444H8.85746C3.99281 30.4444 0.0402832 26.4919 0.0402832 21.6273V8.85758C0.0402832 6.51912 0.969233 4.27644 2.62277 2.6229C4.27631 0.969355 6.519 0.0404053 8.85746 0.0404053ZM8.55341 3.08081C7.10196 3.08081 5.70995 3.6574 4.68361 4.68373C3.65728 5.71007 3.08069 7.10208 3.08069 8.55354V21.9313C3.08069 24.9565 5.52821 27.404 8.55341 27.404H21.9312C23.3827 27.404 24.7747 26.8275 25.801 25.8011C26.8273 24.7748 27.4039 23.3828 27.4039 21.9313V8.55354C27.4039 5.52833 24.9564 3.08081 21.9312 3.08081H8.55341ZM23.2234 5.36111C23.7273 5.36111 24.2107 5.56132 24.567 5.91768C24.9234 6.27405 25.1236 6.75739 25.1236 7.26136C25.1236 7.76534 24.9234 8.24868 24.567 8.60505C24.2107 8.96141 23.7273 9.16162 23.2234 9.16162C22.7194 9.16162 22.236 8.96141 21.8797 8.60505C21.5233 8.24868 21.3231 7.76534 21.3231 7.26136C21.3231 6.75739 21.5233 6.27405 21.8797 5.91768C22.236 5.56132 22.7194 5.36111 23.2234 5.36111ZM15.2423 7.64142C17.2582 7.64142 19.1916 8.44223 20.617 9.8677C22.0425 11.2932 22.8433 13.2265 22.8433 15.2424C22.8433 17.2583 22.0425 19.1917 20.617 20.6172C19.1916 22.0426 17.2582 22.8434 15.2423 22.8434C13.2264 22.8434 11.293 22.0426 9.86758 20.6172C8.44211 19.1917 7.64129 17.2583 7.64129 15.2424C7.64129 13.2265 8.44211 11.2932 9.86758 9.8677C11.293 8.44223 13.2264 7.64142 15.2423 7.64142ZM15.2423 10.6818C14.0328 10.6818 12.8727 11.1623 12.0175 12.0176C11.1622 12.8729 10.6817 14.0329 10.6817 15.2424C10.6817 16.452 11.1622 17.612 12.0175 18.4673C12.8727 19.3225 14.0328 19.803 15.2423 19.803C16.4519 19.803 17.6119 19.3225 18.4671 18.4673C19.3224 17.612 19.8029 16.452 19.8029 15.2424C19.8029 14.0329 19.3224 12.8729 18.4671 12.0176C17.6119 11.1623 16.4519 10.6818 15.2423 10.6818Z" fill="#888888"/>
</svg>
