<svg width="13" height="13" viewBox="0 0 13 13" fill="none" xmlns="http://www.w3.org/2000/svg">
<path d="M2.50103 3.69908C2.45514 3.64826 2.40115 3.60854 2.34215 3.58217C2.28315 3.55579 2.2203 3.5433 2.15718 3.54539C2.09406 3.54748 2.03191 3.56412 1.97428 3.59436C1.91665 3.6246 1.86467 3.66784 1.8213 3.72161C1.77793 3.77539 1.74402 3.83865 1.72152 3.90778C1.69901 3.97691 1.68835 4.05056 1.69013 4.12452C1.69192 4.19848 1.70612 4.27131 1.73192 4.33884C1.75773 4.40637 1.79463 4.46728 1.84053 4.5181L6.16699 9.30602C6.25624 9.4049 6.37441 9.45999 6.49724 9.45999C6.62007 9.45999 6.73824 9.4049 6.82749 9.30602L11.1544 4.5181C11.2013 4.46762 11.2392 4.40672 11.2658 4.33894C11.2925 4.27116 11.3074 4.19785 11.3096 4.12328C11.3119 4.0487 11.3015 3.97434 11.279 3.90452C11.2565 3.8347 11.2225 3.7708 11.1787 3.71655C11.135 3.66229 11.0825 3.61875 11.0243 3.58847C10.9661 3.55818 10.9034 3.54175 10.8397 3.54013C10.776 3.5385 10.7127 3.55172 10.6534 3.579C10.5942 3.60629 10.5401 3.64711 10.4944 3.69908L6.49724 8.122L2.50103 3.69908Z" fill="#AEAEAE"/>
</svg>
