<svg width="15" height="15" viewBox="0 0 15 15" fill="none" xmlns="http://www.w3.org/2000/svg">
<path d="M2.15005 3.75283C2.08865 3.68484 2.01642 3.63169 1.93749 3.59641C1.85856 3.56113 1.77448 3.54441 1.69003 3.54721C1.60559 3.55001 1.52244 3.57227 1.44534 3.61273C1.36824 3.65318 1.2987 3.71103 1.24067 3.78297C1.18265 3.85492 1.13729 3.93955 1.10718 4.03204C1.07708 4.12452 1.06281 4.22305 1.0652 4.322C1.06759 4.42095 1.08658 4.51837 1.12111 4.60872C1.15563 4.69906 1.205 4.78055 1.2664 4.84854L7.0545 11.254C7.17391 11.3863 7.332 11.46 7.49633 11.46C7.66065 11.46 7.81874 11.3863 7.93815 11.254L13.7269 4.84854C13.7896 4.781 13.8403 4.69953 13.876 4.60885C13.9116 4.51817 13.9315 4.4201 13.9345 4.32033C13.9376 4.22056 13.9236 4.12108 13.8936 4.02767C13.8635 3.93426 13.8179 3.84878 13.7594 3.77619C13.7009 3.70361 13.6307 3.64536 13.5528 3.60484C13.475 3.56433 13.391 3.54234 13.3058 3.54017C13.2206 3.538 13.1359 3.55568 13.0566 3.59218C12.9773 3.62869 12.905 3.6833 12.8439 3.75283L7.49633 9.66997L2.15005 3.75283Z" fill="#AEAEAE"/>
</svg>
