<svg width="30" height="30" viewBox="0 0 30 30" fill="none" xmlns="http://www.w3.org/2000/svg">
<path d="M5 26.0914V24.7107C5 22.1474 6.01827 19.6891 7.83081 17.8765C9.64335 16.064 12.1017 15.0457 14.665 15.0457M14.665 15.0457C17.2283 15.0457 19.6866 16.064 21.4992 17.8765C23.3117 19.6891 24.33 22.1474 24.33 24.7107V26.0914M14.665 15.0457C16.1298 15.0457 17.5345 14.4638 18.5703 13.4281C19.606 12.3924 20.1879 10.9876 20.1879 9.52286C20.1879 8.0581 19.606 6.65334 18.5703 5.61761C17.5345 4.58187 16.1298 4 14.665 4C13.2002 4 11.7955 4.58187 10.7598 5.61761C9.72401 6.65334 9.14214 8.0581 9.14214 9.52286C9.14214 10.9876 9.72401 12.3924 10.7598 13.4281C11.7955 14.4638 13.2002 15.0457 14.665 15.0457Z" stroke="black" stroke-width="1.8" stroke-linecap="round" stroke-linejoin="round"/>
</svg>
