<svg width="13" height="8" viewBox="0 0 13 8" fill="none" xmlns="http://www.w3.org/2000/svg">
<path d="M1.66042 0.610242C1.60488 0.54874 1.53954 0.500661 1.46814 0.468747C1.39675 0.436833 1.32068 0.42171 1.24429 0.424242C1.1679 0.426774 1.09269 0.446912 1.02294 0.483504C0.953199 0.520096 0.890287 0.572427 0.837801 0.637509C0.785315 0.702591 0.744282 0.77915 0.717046 0.862813C0.689811 0.946477 0.676905 1.03561 0.679065 1.12511C0.681226 1.21462 0.698412 1.30275 0.72964 1.38448C0.760869 1.46621 0.805529 1.53992 0.861072 1.60142L6.097 7.39582C6.20502 7.51548 6.34803 7.58215 6.49667 7.58215C6.64532 7.58215 6.78833 7.51548 6.89635 7.39582L12.1329 1.60142C12.1896 1.54033 12.2355 1.46663 12.2677 1.3846C12.2999 1.30258 12.318 1.21386 12.3207 1.12361C12.3234 1.03335 12.3108 0.943365 12.2836 0.858864C12.2564 0.774363 12.2152 0.697037 12.1623 0.631376C12.1094 0.565715 12.0458 0.513028 11.9754 0.476376C11.905 0.439724 11.829 0.419837 11.752 0.417871C11.6749 0.415904 11.5983 0.431897 11.5265 0.464921C11.4548 0.497945 11.3894 0.547342 11.3341 0.610241L6.49667 5.9629L1.66042 0.610242Z" fill="#555555"/>
</svg>
