<svg width="20" height="20" viewBox="0 0 20 20" fill="none" xmlns="http://www.w3.org/2000/svg">
<path d="M19.8178 18.9002L13.7651 12.8104C14.8932 11.4593 15.5732 9.72101 15.5732 7.82296C15.5732 3.52258 12.0869 0.036377 7.78658 0.036377C3.48621 0.036377 0 3.52258 0 7.82296C0 12.1233 3.48621 15.6095 7.78658 15.6095C9.74039 15.6095 11.5251 14.8882 12.8924 13.699L18.9366 19.7813C19.1799 20.0245 19.5745 20.0245 19.8178 19.7813C20.0607 19.538 20.0607 19.1437 19.8178 18.9002H19.8178ZM7.78658 14.374C4.16862 14.374 1.23557 11.4409 1.23557 7.82296C1.23557 4.205 4.16862 1.27195 7.78658 1.27195C11.4045 1.27195 14.3376 4.205 14.3376 7.82296C14.3376 11.4409 11.4045 14.374 7.78658 14.374Z" fill="black"/>
</svg>
