<svg width="17" height="10" viewBox="0 0 17 10" fill="none" xmlns="http://www.w3.org/2000/svg">
<path d="M2.09911 0.306545C2.02221 0.22139 1.93174 0.154818 1.83288 0.110629C1.73402 0.0664405 1.6287 0.0455017 1.52293 0.0490074C1.41717 0.0525131 1.31302 0.0803957 1.21645 0.131062C1.11988 0.181728 1.03277 0.254187 0.960099 0.3443C0.887426 0.434414 0.830612 0.540418 0.792901 0.65626C0.75519 0.772101 0.73732 0.895512 0.740312 1.01945C0.743304 1.14338 0.767099 1.26541 0.810339 1.37857C0.853579 1.49172 0.915416 1.5938 0.992321 1.67895L8.24207 9.70196C8.39163 9.86764 8.58964 9.95996 8.79546 9.95996C9.00128 9.95996 9.1993 9.86764 9.34886 9.70196L16.5994 1.67895C16.678 1.59436 16.7415 1.49231 16.7861 1.37873C16.8308 1.26516 16.8557 1.14232 16.8595 1.01736C16.8633 0.892393 16.8458 0.767792 16.8082 0.650791C16.7705 0.533791 16.7134 0.426723 16.6401 0.335807C16.5669 0.244892 16.4789 0.171941 16.3814 0.121192C16.2839 0.0704425 16.1787 0.042908 16.072 0.0401853C15.9653 0.0374625 15.8592 0.0596068 15.7599 0.105332C15.6606 0.151058 15.57 0.219452 15.4934 0.306545L8.79546 7.71791L2.09911 0.306545Z" fill="#3C3C3C"/>
</svg>
