<svg width="8" height="16" viewBox="0 0 8 16" fill="none" xmlns="http://www.w3.org/2000/svg">
<path d="M0.214986 14.2353C0.146313 14.3069 0.0926257 14.391 0.0569898 14.483C0.0213543 14.575 0.00446756 14.673 0.00729472 14.7715C0.0101219 14.8699 0.0326076 14.9668 0.0734678 15.0566C0.114328 15.1465 0.172762 15.2276 0.245434 15.2952C0.318106 15.3628 0.403594 15.4157 0.497014 15.4508C0.590435 15.4859 0.689959 15.5025 0.789906 15.4997C0.889853 15.4969 0.988264 15.4748 1.07952 15.4345C1.17078 15.3943 1.25309 15.3368 1.32177 15.2652L7.79193 8.51916C7.92555 8.37999 8 8.19573 8 8.00421C8 7.81269 7.92555 7.62843 7.79193 7.48926L1.32177 0.742473C1.25355 0.669345 1.17125 0.610293 1.07966 0.568749C0.988065 0.527205 0.889003 0.503996 0.788225 0.50047C0.687447 0.496945 0.586962 0.513173 0.492606 0.548211C0.398251 0.58325 0.311906 0.636401 0.238587 0.704577C0.165268 0.772752 0.106437 0.854594 0.0655101 0.945349C0.0245832 1.0361 0.00237734 1.13396 0.000181969 1.23324C-0.00201388 1.33251 0.0158441 1.43123 0.0527199 1.52365C0.0895951 1.61608 0.144752 1.70036 0.214988 1.77162L6.1919 8.00421L0.214986 14.2353Z" fill="#757575"/>
</svg>
