<svg width="8" height="16" viewBox="0 0 8 16" fill="none" xmlns="http://www.w3.org/2000/svg">
<path d="M7.78501 1.76469C7.85369 1.69313 7.90737 1.60895 7.94301 1.51696C7.97865 1.42497 7.99553 1.32696 7.99271 1.22855C7.98988 1.13013 7.96739 1.03322 7.92653 0.943359C7.88567 0.853497 7.82724 0.772441 7.75457 0.704817C7.68189 0.637193 7.59641 0.584326 7.50299 0.549235C7.40957 0.514144 7.31004 0.497516 7.21009 0.5003C7.11015 0.503084 7.01174 0.525226 6.92048 0.565461C6.82922 0.605697 6.74691 0.663238 6.67823 0.734799L0.208067 7.48084C0.0744498 7.62001 0 7.80427 0 7.99579C0 8.18731 0.0744498 8.37156 0.208067 8.51073L6.67823 15.2575C6.74645 15.3307 6.82875 15.3897 6.92034 15.4312C7.01194 15.4728 7.111 15.496 7.21178 15.4995C7.31255 15.5031 7.41304 15.4868 7.5074 15.4518C7.60175 15.4167 7.6881 15.3636 7.76141 15.2954C7.83473 15.2272 7.89356 15.1454 7.93449 15.0546C7.97542 14.9639 7.99762 14.866 7.99982 14.7668C8.00202 14.6675 7.98416 14.5688 7.94728 14.4763C7.91041 14.3839 7.85525 14.2996 7.78501 14.2284L1.8081 7.99579L7.78501 1.76469Z" fill="#757575"/>
</svg>
